<?xml version="1.0" encoding="UTF-8"?><svg xmlns="http://www.w3.org/2000/svg" xmlns:xlink="http://www.w3.org/1999/xlink" version="1.1" viewBox="0 0 55 73"><!--Generator: Sketch 52.2 (67145) - http://www.bohemiancoding.com/sketch--><title>Slice</title><desc>Created with Sketch.</desc><g id="Page-1" fill="none" fill-rule="evenodd" stroke="none" stroke-width="1"><path id="logo" fill="#FFFFFF" fill-rule="nonzero" d="M50.7639953,59.4615723 C47.9212913,63.6002249 44.9807753,67.7134203 40.3381253,67.7996352 C35.7690053,67.8858501 34.3042193,65.1052512 29.0904293,65.1052512 C23.8711673,65.1052512 22.2384593,67.7134203 17.9244371,67.8858501 C13.4424245,68.0528489 10.0343603,63.4159152 7.16822933,59.2959312 C1.31281313,50.8719929 -3.15627187,35.4772101 2.85417293,25.0879125 C5.83053053,19.9283606 11.1638153,16.6638723 16.9432391,16.5776914 C21.3448133,16.4970432 25.5028493,19.5320438 28.1913113,19.5320438 C30.8838773,19.5320438 35.9307713,15.8881762 41.2365593,16.4226405 C43.4575073,16.5139807 49.6907993,17.3136065 53.6939093,23.1453288 C53.3775593,23.3523463 46.2536993,27.4785758 46.3405673,36.0749438 C46.4277773,46.3436763 55.3789433,49.7569701 55.4829113,49.8034718 C55.4018573,50.0448055 54.0519833,54.6763083 50.7639953,59.4615723 Z M31.2710213,5.14224103 C33.7282913,2.27552914 37.8801713,0.1432728 41.3066693,0 C41.7444293,3.98200629 40.1353193,7.96951131 37.7587613,10.8428421 C35.3774153,13.7110135 31.4792993,15.9452681 27.6536873,15.6469443 C27.1338473,11.751119 29.0620433,7.68809109 31.2710213,5.14224103 Z"/></g></svg>