<svg xmlns="http://www.w3.org/2000/svg" fill="none" viewBox="0 0 40 40"><g clip-path="url(#clip0)"><path fill="#FF6565" d="M4.76637 20.0963C4.78102 20.111 4.76691 20.125 4.78156 20.1398C4.93626 20.7189 5.38125 20.6875 5.86967 20.6716C6.73199 20.6655 8.59377 20.6306 9.45609 20.6246C11.8846 20.5878 14.3131 20.551 16.7557 20.5002C17.5317 20.4919 19.3785 20.8567 19.4734 19.7954C19.5325 19.1212 19.418 18.385 19.3908 17.7086C19.3398 16.5284 19.2881 15.3194 19.2371 14.1392C19.1431 12.2103 19.2244 5.21373 19.0018 3.32457C18.865 2.17087 17.1469 2.52823 16.3274 2.52106C13.9401 2.45829 11.3744 2.99687 8.98716 2.9341C8.18182 2.91292 5.33343 2.46178 5.16688 3.53563C4.86199 5.65531 4.92941 12.9146 4.84052 15.0544C4.74673 16.9352 4.8455 18.2007 4.75171 20.0815C4.75117 20.0527 4.75171 20.0815 4.76637 20.0963Z"/><path fill="#202327" d="M26 7H14C11.2 7 9 9.2 9 12V28C9 30.8 11.2 33 14 33H26C28.8 33 31 30.8 31 28V20V12C31 9.2 28.8 7 26 7ZM14 9H26C27.7 9 29 10.3 29 12V20C29 21.7 27.7 23 26 23H14C12.9 23 11.8 23.4 11 24V12C11 10.3 12.3 9 14 9ZM29 28C29 29.7 27.7 31 26 31H14C12.3 31 11 29.7 11 28C11 26.3 12.3 25 14 25H26C27.1 25 28.2 24.6 29 24V28Z"/><path fill="#202327" d="M17 18H23C24.7 18 26 16.7 26 15C26 13.3 24.7 12 23 12H17C15.3 12 14 13.3 14 15C14 16.7 15.3 18 17 18ZM17 14H23C23.6 14 24 14.4 24 15C24 15.6 23.6 16 23 16H17C16.4 16 16 15.6 16 15C16 14.4 16.4 14 17 14Z"/><path fill="#202327" d="M14 27C13.4 27 13 27.4 13 28C13 28.6 13.4 29 14 29H26C26.6 29 27 28.6 27 28C27 27.4 26.6 27 26 27H14Z"/></g><defs><clipPath id="clip0"><rect width="40" height="40" fill="white"/></clipPath></defs></svg>