<svg xmlns="http://www.w3.org/2000/svg" fill="none" viewBox="0 0 30 34"><path fill="url(#paint0_linear)" d="M0.79993 0.928467C0.414215 1.31418 0.285645 1.95704 0.285645 2.72847V31.1428C0.285645 31.9142 0.542787 32.557 0.928502 32.9428L1.05707 33.0713L16.9999 17.1285V16.9999V16.8713L0.79993 0.928467Z"/><path fill="url(#paint1_linear)" d="M22.1428 22.5284L16.8713 17.257V16.9999V16.8713L22.1428 11.5999L22.2713 11.7284L28.5713 15.3284C30.3713 16.357 30.3713 18.0284 28.5713 19.057L22.1428 22.5284Z"/><path fill="url(#paint2_linear)" d="M22.2712 22.4L16.8712 17L0.799805 33.0714C1.44266 33.7143 2.34266 33.7143 3.49981 33.2L22.2712 22.4Z"/><path fill="url(#paint3_linear)" d="M22.2712 11.5999L3.49981 0.928506C2.34266 0.285649 1.44266 0.41422 0.799805 1.05708L16.8712 16.9999L22.2712 11.5999Z"/><path fill="black" d="M22.1427 22.2712L3.49981 32.8141C2.47123 33.457 1.57123 33.3284 0.928377 32.8141L0.799805 32.9427L0.928377 33.0712C1.57123 33.5855 2.47123 33.7141 3.49981 33.0712L22.1427 22.2712Z" opacity="0.2"/><path fill="black" d="M0.79993 32.8142C0.414216 32.4284 0.285645 31.7856 0.285645 31.0142V31.1427C0.285645 31.9142 0.542788 32.557 0.928502 32.9427V32.8142H0.79993Z" opacity="0.12"/><path fill="black" d="M28.5714 18.6714L22.1428 22.2714L22.2714 22.4L28.5714 18.8C29.4714 18.2857 29.8571 17.6429 29.8571 17C29.8571 17.6429 29.3428 18.1571 28.5714 18.6714Z" opacity="0.12"/><path fill="white" d="M3.49993 1.05704L28.5714 15.3285C29.3428 15.8428 29.8571 16.357 29.8571 16.9999C29.8571 16.357 29.4714 15.7142 28.5714 15.1999L3.49993 0.928466C1.69993 -0.100106 0.285645 0.671322 0.285645 2.72847V2.85704C0.285645 0.928466 1.69993 0.0284654 3.49993 1.05704Z" opacity="0.25"/><defs><linearGradient id="paint0_linear" x1="15.4566" x2="-6.12081" y1="2.48392" y2="24.0613" gradientUnits="userSpaceOnUse"><stop stop-color="#00A0FF"/><stop offset="0.00657445" stop-color="#00A1FF"/><stop offset="0.2601" stop-color="#00BEFF"/><stop offset="0.5122" stop-color="#00D2FF"/><stop offset="0.7604" stop-color="#00DFFF"/><stop offset="1" stop-color="#00E3FF"/></linearGradient><linearGradient id="paint1_linear" x1="30.9297" x2="-0.180575" y1="17.0018" y2="17.0018" gradientUnits="userSpaceOnUse"><stop stop-color="#FFE000"/><stop offset="0.4087" stop-color="#FFBD00"/><stop offset="0.7754" stop-color="#FFA500"/><stop offset="1" stop-color="#FF9C00"/></linearGradient><linearGradient id="paint2_linear" x1="19.3487" x2="-9.91199" y1="19.9523" y2="49.2129" gradientUnits="userSpaceOnUse"><stop stop-color="#FF3A44"/><stop offset="1" stop-color="#C31162"/></linearGradient><linearGradient id="paint3_linear" x1="-3.18951" x2="9.87669" y1="-8.48768" y2="4.57839" gradientUnits="userSpaceOnUse"><stop stop-color="#32A071"/><stop offset="0.0685" stop-color="#2DA771"/><stop offset="0.4762" stop-color="#15CF74"/><stop offset="0.8009" stop-color="#06E775"/><stop offset="1" stop-color="#00F076"/></linearGradient></defs></svg>