<svg xmlns="http://www.w3.org/2000/svg" fill="none" viewBox="0 0 40 40"><path fill="#FF6565" d="M36.8656 23.6145C36.8656 23.5937 36.8855 23.5937 36.8855 23.5729C37.1837 23.0529 36.8457 22.7617 36.4879 22.4289C35.8716 21.8257 35.2354 21.2433 34.6191 20.6401C32.8697 18.9554 31.1203 17.2706 29.3509 15.5858C28.7943 15.045 27.7407 13.4851 26.9256 14.1715C26.4087 14.6083 25.9713 15.2114 25.5141 15.7106C24.7189 16.5842 23.9038 17.4786 23.1086 18.3522C21.8164 19.7873 20.3652 21.1601 19.1923 22.6577C18.4766 23.5729 19.9477 24.5296 20.5242 25.112C22.1743 26.8384 23.8243 28.5647 25.4743 30.2911C26.031 30.8735 27.025 32.4959 27.8997 31.8511C29.6094 30.5615 31.1401 28.8975 32.7107 27.4416C34.1023 26.1728 35.474 24.904 36.8656 23.6353C36.8457 23.6561 36.8656 23.6353 36.8656 23.6145Z"/><path fill="#202327" d="M19.9999 32C19.1999 32 18.3999 31.6 17.8999 31L8.69986 19.8C7.79986 18.7 7.29987 17.5 7.09987 16.3C6.99987 15.5 6.99986 14.7 7.19986 13.8C7.79986 10.8 10.1999 8.50004 13.2999 8.10004C15.8999 7.70004 18.4999 8.80003 20.0999 10.8C21.6999 8.80003 24.2999 7.70004 26.8999 8.10004C29.8999 8.50004 32.3999 10.8 32.8999 13.8C33.0999 14.6 33.0999 15.5 32.9999 16.3C32.7999 17.5 32.2999 18.7 31.3999 19.8L22.1999 31C21.5999 31.6 20.7999 32 19.9999 32ZM14.2999 10C13.9999 10 13.7999 10 13.4999 10.1C11.2999 10.4 9.49987 12.1 9.09987 14.3C8.99987 14.9 8.99987 15.5 8.99987 16.1C9.09987 17 9.49986 17.8 10.1999 18.6L19.3999 29.8C19.5999 30 19.7999 30.1 19.9999 30.1C20.1999 30.1 20.3999 30.1 20.5999 29.8L29.7999 18.6C30.3999 17.8 30.8999 16.9 30.9999 16.1C31.0999 15.5 31.0999 14.9 30.8999 14.3C30.4999 12.2 28.6999 10.5 26.4999 10.1C24.0999 9.80004 21.8999 11 20.8999 13.2C20.6999 13.6 20.3999 13.8 19.9999 13.8C19.5999 13.8 19.1999 13.6 19.0999 13.2C18.1999 11.2 16.3999 10 14.2999 10Z"/></svg>