<svg xmlns="http://www.w3.org/2000/svg" viewBox="40 0 199 27"><path fill="#ADB5BD" fill-rule="evenodd" d="M225.752 1.036c1.158.623 1.544 1.615 1.483 2.888-.056 1.154.002 2.314-.006 3.47-.014 1.94.045 1.791 1.668 1.298 3.235-.982 6.019-.102 8.264 2.408 1.085 1.211 1.742 2.669 1.781 4.29.07 2.943.017 5.89.017 8.835 0 .878-.363 1.508-1.201 1.845-.77.31-1.534.216-2.013-.407-.349-.455-.539-1.133-.56-1.72-.067-1.944-.019-3.891-.032-5.837-.005-.735-.01-1.476-.098-2.204-.274-2.234-1.894-3.668-4.027-3.614-2.09.053-3.683 1.647-3.751 3.89-.074 2.417-.032 4.838-.064 7.256-.026 1.904-.709 2.804-2.043 2.763-1.271-.038-1.904-.925-1.906-2.726-.006-6.521.025-13.043-.027-19.565-.01-1.21.32-2.137 1.252-2.87h1.263zm-182.869 0c.949.802 1.232 1.809 1.22 3.052-.054 5.513-.027 11.028-.02 16.542.002 1.571.017 1.582 1.542 1.59 2.521.013 5.042.004 7.562.02.468.004.957.012 1.397.146.907.276 1.379.985 1.39 1.897.012.86-.457 1.52-1.29 1.79-.486.158-1.025.213-1.541.215-3.466.015-6.932-.024-10.398.016-1.146.013-2.055-.302-2.705-1.264 0-7.685.014-15.37-.02-23.056-.004-.79.172-1.059.97-.963.622.075 1.26.015 1.893.015m89.382 0c.952.721 1.264 1.652 1.252 2.862-.056 5.572-.028 11.145-.022 16.717.002 1.624.015 1.642 1.66 1.654 2.418.02 4.837.007 7.255.013.42.001.847-.02 1.258.047 1.012.167 1.76 1 1.784 1.923.022.854-.628 1.647-1.606 1.896-.35.09-.728.106-1.093.106-3.522.004-7.045.015-10.567-.012-1.96-.015-2.51-.586-2.514-2.563-.01-6.677.02-13.354-.027-20.03-.008-1.184.353-2.027 1.356-2.613h1.264zM78.533 17.295c-.009 2.894 1.979 5.076 4.654 5.111 2.66.035 4.851-2.306 4.835-5.164-.017-2.847-2.228-5.163-4.89-5.124-2.63.04-4.59 2.246-4.599 5.177m13.35.014c0 2.21-.011 4.42.004 6.628.007.897-.153 1.684-1.061 2.102-.945.435-1.768.214-2.393-.574-.455-.573-.869-.37-1.369-.12-1.542.774-3.181 1.098-4.897.873-4.282-.56-7.208-3.805-7.597-8.39-.348-4.095 2.294-8.062 6.197-9.217 2.094-.62 4.172-.51 6.126.525.7.37 1.182.451 1.72-.271.542-.73 1.377-.737 2.154-.413.743.31 1.108.937 1.107 1.756v7.101h.008m66.803-.057c-.046-2.943-2.3-5.27-5.029-5.19-2.557.074-4.657 2.443-4.644 5.24.014 2.872 2.231 5.247 4.853 5.198 2.66-.05 4.864-2.449 4.82-5.248m3.815-.014v6.312c0 .974-.065 1.923-1.095 2.424-.956.465-1.755.133-2.402-.589-.56-.625-1.073-.191-1.564.018-1.844.785-3.707 1.055-5.691.563-4.958-1.228-7.71-6.57-6.008-11.74 1.59-4.831 6.783-7.214 11.456-5.184.916.398 1.49.54 2.297-.284.94-.958 2.477-.39 2.852.922.127.445.13.935.133 1.404.013 2.052.005 4.103.005 6.154h.017m-97.634-1.724v-.02c1.468 0 2.935.002 4.403-.002.726-.001.874-.415.426-.87-.797-.809-1.596-1.704-2.572-2.231-2.502-1.35-5.526-.394-6.786 1.978-.477.9-.388 1.109.597 1.136 1.31.037 2.621.01 3.932.01m1.327 3.126c-1.578 0-3.155-.018-4.732.006-1.313.02-1.45.311-.764 1.48 1.114 1.902 3.893 2.893 6.252 2.159.741-.231 1.41-.684 2.128-.999 1.376-.603 2.666.03 2.643 1.368-.01.5-.327 1.12-.704 1.469-3.262 3.022-9.12 2.848-12.404-.32-3.429-3.306-3.692-8.805-.595-12.447 3.024-3.556 8.36-4.163 12.1-1.36 1.908 1.428 2.967 3.38 3.35 5.7.34 2.075-.293 2.856-2.385 2.924-1.628.054-3.26.01-4.89.01v.01m43.348-1.463c.001-2.158-.02-4.316.007-6.474.028-2.256 1.357-3.047 3.287-1.888.65.39 1.068.115 1.593-.071 4.38-1.555 8.966.803 10.063 5.176.09.355.17.724.17 1.087.01 3.105-.003 6.21.002 9.315.001.82-.273 1.543-1.093 1.705-.612.12-1.455.107-1.895-.234-.442-.342-.684-1.156-.711-1.776-.089-2.05-.037-4.104-.046-6.157-.003-.736.018-1.477-.047-2.209-.183-2.04-1.802-3.54-3.764-3.533-1.993.007-3.48 1.498-3.535 3.658-.066 2.578-.02 5.158-.087 7.735-.049 1.93-.745 2.782-2.082 2.739-1.264-.04-1.854-.904-1.86-2.757-.009-2.106-.003-4.21-.002-6.316m76.145 0c0-2.156-.015-4.313.004-6.47.02-2.203 1.295-2.98 3.153-1.863.547.328.95.288 1.45.067 4.729-2.088 10.746 1.293 10.46 7.526-.115 2.52-.031 5.05-.04 7.574-.002.76-.103 1.475-.859 1.902-1.28.722-2.72-.066-2.778-1.602-.066-1.733-.016-3.471-.02-5.207-.002-.947.011-1.894-.023-2.84-.09-2.5-1.61-4.174-3.786-4.197-2.16-.023-3.664 1.606-3.739 4.19-.07 2.418-.026 4.839-.045 7.258-.014 1.812-.656 2.71-1.905 2.71-1.247-.001-1.872-.9-1.878-2.735-.008-2.104-.002-4.208-.002-6.313h.008m-19.042-2.24c0-1.42-.026-2.84.006-4.26.037-1.598.706-2.385 1.915-2.339 1.17.045 1.784.783 1.808 2.299.041 2.734.007 5.47.069 8.204.04 1.799 1.11 3.058 2.837 3.527 1.473.4 3.35-.279 4.07-1.691.412-.807.604-1.796.638-2.712.094-2.47.032-4.943.066-7.415.021-1.526.628-2.221 1.833-2.21 1.18.01 1.867.762 1.884 2.239.032 2.84.08 5.683-.023 8.52-.144 3.975-3.626 7.19-7.6 7.155-4.04-.036-7.277-3.063-7.48-7.058-.072-1.416-.011-2.839-.011-4.259h-.012m45.747-6.611c2.772-.016 4.552.56 6.16 1.644 1.144.771 1.424 1.708.88 2.677-.545.97-1.483 1.176-2.74.586-.381-.179-.736-.411-1.113-.597-2.317-1.141-4.99-.527-6.672 1.525-1.535 1.872-1.53 4.379.015 6.237 1.691 2.036 4.39 2.644 6.68 1.498.329-.164.634-.376.964-.537 1.317-.644 2.34-.434 2.881.576.51.952.18 1.906-.928 2.675-3.272 2.272-7.96 2.126-11.072-.344-3.09-2.453-4.258-6.29-3.01-9.895 1.242-3.588 4.818-6.052 7.955-6.045m-116.092 8.97c.002-2.263-.033-4.527.014-6.79.03-1.5.984-2.368 2.281-2.157.347.056.862.188.97.432.684 1.545 1.474.833 2.515.372 1.117-.494 2.41-.7 3.643-.788 1.081-.078 1.807.755 1.862 1.746.05.893-.537 1.768-1.552 1.89-1.668.202-3.01.854-4.019 2.202-1.17 1.565-1.852 3.274-1.757 5.272.065 1.366.041 2.737.02 4.105-.028 1.827-.649 2.646-1.97 2.67-1.3.025-1.99-.862-2.004-2.638-.017-2.105-.004-4.21-.003-6.316"/></svg>