<svg xmlns="http://www.w3.org/2000/svg" viewBox="41 0 150 37"><path fill="#ADB5BD" d="M95.245 34.723h-7.122V11.728h7.122v22.995zm-23.401 0h-7.122V.943h7.122v33.78zm-23.198 0h-7.123V.943h7.123v33.78zm11.599-10.786h-7.122V.943h7.122v22.994zM83.443 7.658h-7.122V.943h7.122v6.715zm-7.122 4.07h7.122v22.995h-7.122V11.728zM88.123.943h18.721v6.715h-18.72V.943zm29.75-.007h2.359v8.343h-1.528V3.635c0-.162.002-.39.005-.682.004-.292.005-.517.005-.676l-1.487 7.002h-1.593l-1.477-7.002c0 .158.002.384.005.676.004.293.006.52.006.682v5.643h-1.528V.936h2.386l1.428 6.56 1.419-6.56zm6.052 4.59c.283-.038.485-.085.606-.142.218-.098.328-.25.328-.458 0-.253-.084-.427-.251-.524-.168-.096-.413-.144-.737-.144-.363 0-.62.095-.772.283-.108.14-.18.328-.216.566h-1.464c.032-.54.175-.983.428-1.33.403-.543 1.094-.815 2.075-.815.638 0 1.204.134 1.7.402.495.268.743.773.743 1.517v2.83c0 .196.004.434.01.713.012.211.042.355.091.43.05.076.124.138.224.187v.238h-1.65a1.892 1.892 0 0 1-.097-.35 4.496 4.496 0 0 1-.042-.374c-.21.241-.454.447-.729.617-.328.2-.7.3-1.114.3-.528 0-.965-.16-1.309-.479-.344-.318-.517-.77-.517-1.355 0-.759.277-1.308.831-1.647.305-.185.751-.317 1.341-.397l.521-.068zm.928.753a1.637 1.637 0 0 1-.294.155c-.1.04-.235.077-.407.11l-.346.069c-.323.06-.556.134-.697.22-.24.148-.358.376-.358.685 0 .276.073.475.219.598a.8.8 0 0 0 .532.183c.332 0 .637-.101.916-.305.28-.204.425-.576.436-1.115v-.6zm4.014 1.03c.033.287.102.49.209.611.189.215.539.323 1.049.323.3 0 .537-.047.714-.142a.455.455 0 0 0 .265-.424.465.465 0 0 0-.214-.414c-.142-.094-.67-.256-1.587-.486-.66-.174-1.124-.39-1.394-.651-.27-.257-.404-.627-.404-1.11 0-.57.21-1.06.632-1.468.421-.41 1.015-.614 1.78-.614.725 0 1.316.153 1.773.46.457.308.72.84.787 1.594h-1.517a.991.991 0 0 0-.165-.492c-.168-.22-.452-.329-.854-.329-.331 0-.567.055-.708.164-.14.11-.21.238-.21.385 0 .185.074.32.224.402.149.087.677.236 1.584.447.604.151 1.057.38 1.359.685.298.31.447.696.447 1.16 0 .612-.214 1.11-.643 1.498-.428.386-1.09.58-1.987.58-.914 0-1.588-.205-2.024-.614-.436-.41-.654-.931-.654-1.565h1.538zm6.064 0c.033.287.102.49.209.611.189.215.539.323 1.049.323.3 0 .537-.047.714-.142a.455.455 0 0 0 .265-.424.465.465 0 0 0-.214-.414c-.142-.094-.671-.256-1.587-.486-.66-.174-1.124-.39-1.394-.651-.27-.257-.404-.627-.404-1.11 0-.57.21-1.06.632-1.468.421-.41 1.015-.614 1.78-.614.725 0 1.316.153 1.773.46.457.308.72.84.787 1.594h-1.517a.991.991 0 0 0-.165-.492c-.168-.22-.452-.329-.855-.329-.33 0-.566.055-.707.164-.14.11-.21.238-.21.385 0 .185.074.32.224.402.149.087.677.236 1.584.447.604.151 1.057.38 1.359.685.298.31.447.696.447 1.16 0 .612-.214 1.11-.643 1.498-.428.386-1.09.58-1.987.58-.914 0-1.588-.205-2.024-.614-.436-.41-.654-.931-.654-1.565h1.538zm7.186-1.783c.283-.038.485-.085.606-.142.218-.098.327-.25.327-.458 0-.253-.083-.427-.25-.524-.168-.096-.413-.144-.737-.144-.364 0-.62.095-.772.283-.108.14-.18.328-.216.566h-1.464c.032-.54.175-.983.428-1.33.403-.543 1.094-.815 2.075-.815.638 0 1.204.134 1.7.402.495.268.743.773.743 1.517v2.83c0 .196.004.434.01.713.012.211.042.355.091.43.05.076.124.138.224.187v.238h-1.65a1.892 1.892 0 0 1-.097-.35 4.496 4.496 0 0 1-.042-.374 3.2 3.2 0 0 1-.729.617c-.328.2-.7.3-1.114.3-.528 0-.965-.16-1.309-.479-.345-.318-.517-.77-.517-1.355 0-.759.277-1.308.831-1.647.304-.185.751-.317 1.341-.397l.521-.068zm.928.753a1.637 1.637 0 0 1-.294.155c-.1.04-.235.077-.407.11l-.346.069c-.323.06-.556.134-.697.22-.24.148-.358.376-.358.685 0 .276.072.475.218.598a.8.8 0 0 0 .533.183c.332 0 .637-.101.916-.305.28-.204.424-.576.436-1.115v-.6zm6.309-.957a1.486 1.486 0 0 0-.219-.623c-.17-.249-.436-.373-.795-.373-.513 0-.863.27-1.051.81-.1.285-.15.666-.15 1.14 0 .451.05.815.15 1.09.18.513.523.77 1.024.77.356 0 .609-.103.758-.306.15-.204.24-.468.272-.793h1.55c-.036.49-.203.955-.501 1.393-.476.705-1.182 1.058-2.116 1.058-.934 0-1.622-.294-2.062-.883-.441-.588-.661-1.352-.661-2.29 0-1.058.243-1.88.73-2.47.486-.588 1.158-.883 2.014-.883.729 0 1.324.174 1.788.521.464.347.738.96.823 1.84h-1.554v-.001zm6.763-2.179c.292.132.531.334.719.606.159.23.256.467.291.711.035.244.053.641.053 1.193v3.625h-1.55V5.522c0-.333-.052-.601-.158-.805-.137-.287-.398-.43-.782-.43-.398 0-.7.142-.906.427-.207.285-.31.692-.31 1.221v3.343h-1.517V.964h1.517v2.943c.22-.358.473-.608.761-.75.288-.141.591-.212.91-.212.356 0 .68.066.972.198zm4.002-.034v3.719c0 .35.039.615.116.792.138.313.408.47.81.47.516 0 .87-.223 1.06-.668.1-.241.149-.56.149-.957V3.11h1.538v6.17h-1.474v-.872c-.015.018-.05.075-.107.17a1.118 1.118 0 0 1-.202.248c-.237.227-.466.382-.687.465-.221.083-.48.124-.778.124-.856 0-1.433-.328-1.73-.985-.167-.362-.25-.896-.25-1.601v-3.72h1.555zm6.325 4.2c.032.287.101.49.208.611.19.215.539.323 1.05.323.299 0 .537-.047.713-.142a.455.455 0 0 0 .265-.424.465.465 0 0 0-.213-.414c-.142-.094-.672-.256-1.587-.486-.66-.174-1.125-.39-1.394-.651-.27-.257-.405-.627-.405-1.11 0-.57.21-1.06.632-1.468.422-.41 1.015-.614 1.78-.614.725 0 1.317.153 1.774.46.457.308.72.84.787 1.594h-1.518a.991.991 0 0 0-.165-.492c-.167-.22-.452-.329-.854-.329-.331 0-.567.055-.708.164-.14.11-.21.238-.21.385 0 .185.074.32.224.402.15.087.677.236 1.584.447.604.151 1.057.38 1.359.685.298.31.447.696.447 1.16 0 .612-.214 1.11-.643 1.498-.428.386-1.09.58-1.987.58-.914 0-1.588-.205-2.024-.614-.436-.41-.654-.931-.654-1.565h1.539zm8.669-4.075c.405.193.739.497 1.002.913.238.366.392.792.463 1.275.04.284.057.692.05 1.225H172.4c.023.619.226 1.053.607 1.302.231.154.51.232.836.232.346 0 .627-.095.843-.283.118-.102.222-.244.312-.425h1.55c-.042.366-.229.738-.564 1.115-.52.6-1.247.9-2.183.9a3.048 3.048 0 0 1-2.044-.759c-.59-.506-.885-1.33-.885-2.47 0-1.069.266-1.888.8-2.458.532-.57 1.224-.856 2.074-.856.506 0 .96.096 1.366.29zm-2.27 1.393c-.215.235-.35.554-.405.955h2.614c-.027-.428-.162-.753-.404-.975a1.283 1.283 0 0 0-.9-.332c-.39 0-.691.118-.905.352zm3.956-.313V3.166h.809V1.445h1.501v1.72h.943v1.15h-.943v3.26c0 .252.03.41.09.472.06.063.246.094.554.094a4.089 4.089 0 0 0 .298-.012v1.206l-.719.028c-.717.027-1.206-.106-1.469-.396-.17-.185-.255-.47-.255-.855V4.314h-.81zm3.631 0V3.166h.809V1.445h1.501v1.72h.943v1.15h-.943v3.26c0 .252.03.41.09.472.06.063.246.094.554.094a4.089 4.089 0 0 0 .298-.012v1.206l-.718.028c-.717.027-1.207-.106-1.47-.396-.17-.185-.255-.47-.255-.855V4.314h-.81zm5.403 2.995c.033.287.102.49.209.611.189.215.538.323 1.048.323.3 0 .538-.047.715-.142a.455.455 0 0 0 .264-.424.465.465 0 0 0-.213-.414c-.142-.094-.671-.256-1.587-.486-.66-.174-1.124-.39-1.394-.651-.27-.257-.404-.627-.404-1.11 0-.57.21-1.06.632-1.468.421-.41 1.014-.614 1.779-.614.726 0 1.317.153 1.774.46.457.308.72.84.787 1.594h-1.517a.991.991 0 0 0-.166-.492c-.167-.22-.452-.329-.854-.329-.33 0-.567.055-.707.164-.14.11-.211.238-.211.385 0 .185.075.32.224.402.15.087.677.236 1.584.447.605.151 1.058.38 1.36.685.298.31.447.696.447 1.16 0 .612-.215 1.11-.643 1.498-.429.386-1.091.58-1.987.58-.914 0-1.589-.205-2.025-.614-.435-.41-.653-.931-.653-1.565h1.538zm-71.67 14.527h-1.63v-8.343h1.63zm6.09-5.816c.38.334.57.888.57 1.662v4.154h-1.554v-3.752c0-.324-.04-.573-.122-.747-.148-.317-.43-.476-.845-.476-.511 0-.862.233-1.052.697-.099.245-.148.558-.148.94v3.338h-1.517v-6.158h1.47v.9c.193-.317.377-.545.55-.685.311-.249.705-.374 1.183-.374.597 0 1.085.168 1.465.502zm3.157 3.847c.033.287.102.49.209.611.189.215.539.323 1.049.323.3 0 .537-.047.714-.142a.455.455 0 0 0 .264-.424.465.465 0 0 0-.213-.414c-.142-.094-.671-.256-1.587-.486-.66-.174-1.124-.39-1.394-.651-.27-.257-.405-.627-.405-1.11 0-.57.211-1.059.633-1.468.421-.41 1.014-.614 1.779-.614.725 0 1.317.153 1.774.46.457.308.72.84.787 1.594h-1.517a.991.991 0 0 0-.166-.492c-.167-.22-.452-.329-.854-.329-.331 0-.567.055-.707.164-.14.11-.211.238-.211.385 0 .185.074.32.224.402.15.087.677.236 1.584.447.604.151 1.058.38 1.36.685.297.31.447.696.447 1.16 0 .612-.215 1.11-.643 1.498-.429.386-1.091.58-1.987.58-.915 0-1.59-.205-2.025-.614-.435-.41-.653-.931-.653-1.565h1.538zm4.292-2.994v-1.15h.809v-1.72h1.501v1.72h.942v1.15h-.942v3.26c0 .253.03.41.09.472.06.063.246.094.554.094a4.089 4.089 0 0 0 .298-.012v1.206l-.719.028c-.717.027-1.206-.105-1.469-.396-.17-.185-.255-.47-.255-.855v-3.797h-.81zm5.787-1.942h-1.539v-1.489h1.539v1.489zm-1.539.736h1.539v6.17h-1.539v-6.17zm2.412 1.206v-1.15h.809v-1.72h1.501v1.72h.943v1.15h-.943v3.26c0 .253.03.41.09.472.06.063.246.094.554.094a4.089 4.089 0 0 0 .298-.012v1.206l-.719.028c-.717.027-1.206-.105-1.469-.396-.17-.185-.255-.47-.255-.855v-3.797h-.81zm5.739-1.206v3.719c0 .35.039.615.117.792.137.313.408.47.81.47.516 0 .869-.223 1.06-.668.098-.241.148-.56.148-.956v-3.357h1.539v6.17H142.3v-.872c-.015.019-.05.075-.106.17a1.118 1.118 0 0 1-.202.249c-.237.226-.467.38-.688.464-.221.083-.48.124-.778.124-.856 0-1.433-.328-1.73-.984-.166-.363-.25-.897-.25-1.602v-3.719h1.555zm4.552 1.206v-1.15h.81v-1.72h1.5v1.72h.943v1.15h-.943v3.26c0 .253.03.41.09.472.061.062.246.094.555.094a4.089 4.089 0 0 0 .298-.012v1.206l-.719.028c-.717.027-1.207-.105-1.47-.396-.17-.185-.255-.47-.255-.855v-3.797h-.81zm8.009-1.081c.405.193.739.497 1.002.913.238.366.392.791.463 1.275.04.283.057.691.05 1.225h-4.227c.023.619.226 1.052.607 1.301.232.155.51.233.837.233.345 0 .626-.095.842-.283.118-.102.222-.244.312-.425h1.55c-.042.366-.229.738-.563 1.115-.52.6-1.248.9-2.184.9a3.048 3.048 0 0 1-2.044-.759c-.59-.506-.885-1.33-.885-2.47 0-1.069.267-1.888.8-2.459.532-.57 1.224-.855 2.074-.855.506 0 .96.096 1.366.289zm-2.27 1.394c-.215.234-.35.553-.405.954h2.614c-.027-.428-.162-.753-.404-.974a1.283 1.283 0 0 0-.9-.333c-.39 0-.691.117-.905.353zm12.421 3.896c-.49.642-1.234.964-2.23.964-.998 0-1.742-.322-2.231-.964-.49-.643-.735-1.417-.735-2.322 0-.89.245-1.66.735-2.313.49-.652 1.233-.978 2.23-.978.997 0 1.741.326 2.23.978.49.652.736 1.423.736 2.313 0 .905-.245 1.679-.735 2.322zm-1.214-.892c.238-.335.357-.812.357-1.43 0-.618-.12-1.093-.357-1.427-.238-.333-.579-.5-1.022-.5-.444 0-.786.167-1.025.5-.24.334-.36.81-.36 1.427 0 .618.12 1.095.36 1.43.24.336.581.503 1.025.503.443 0 .784-.168 1.022-.503zm5.436-6.773l.32.026v1.313a4.768 4.768 0 0 0-.43-.026c-.2-.006-.338.042-.415.142a.531.531 0 0 0-.114.33v.522h.995v1.137h-.995v4.975h-1.507v-4.975h-.852v-1.137h.83v-.397c0-.66.106-1.115.315-1.364.22-.37.75-.555 1.592-.555.096 0 .183.004.26.009zm-48.666 12.634v1.478h-2.348v6.865h-1.65V27.53h-2.359v-1.48zm3.813 2.299c.405.193.74.497 1.003.913.237.366.392.791.462 1.275.041.284.058.692.05 1.225h-4.226c.023.619.226 1.052.607 1.301.232.155.51.233.837.233.345 0 .626-.095.842-.283.118-.102.222-.244.312-.425h1.55c-.041.366-.229.738-.563 1.115-.52.6-1.248.9-2.183.9a3.048 3.048 0 0 1-2.044-.759c-.59-.506-.886-1.33-.886-2.47 0-1.069.267-1.888.8-2.458.532-.57 1.224-.856 2.075-.856.504 0 .96.096 1.364.289zm-2.27 1.393c-.214.235-.35.554-.404.955h2.614c-.027-.428-.162-.753-.404-.975a1.283 1.283 0 0 0-.9-.332c-.39 0-.692.117-.906.352zm8.024.695a1.486 1.486 0 0 0-.219-.623c-.17-.249-.436-.373-.795-.373-.513 0-.863.27-1.051.81-.1.285-.15.665-.15 1.14 0 .451.05.815.15 1.09.18.512.523.77 1.024.77.356 0 .609-.103.758-.307.15-.203.24-.468.272-.792h1.55c-.036.49-.203.955-.501 1.393-.476.705-1.182 1.058-2.116 1.058-.934 0-1.622-.294-2.062-.883-.441-.589-.661-1.352-.661-2.29 0-1.058.243-1.881.73-2.47.486-.589 1.158-.883 2.014-.883.729 0 1.324.174 1.788.52.464.348.738.961.823 1.84h-1.554zm6.764-2.179c.29.132.53.334.718.606.158.23.256.467.291.711.035.244.053.641.053 1.192v3.626h-1.55v-3.757c0-.332-.052-.6-.158-.804-.137-.287-.398-.431-.782-.431-.398 0-.7.143-.906.428-.207.285-.31.692-.31 1.22v3.344h-1.517V26.08h1.517v2.943c.22-.359.473-.609.761-.75.288-.141.591-.212.91-.212.356 0 .68.066.972.198zm7.168.32c.38.334.57.887.57 1.66v4.155h-1.554v-3.752c0-.325-.04-.574-.122-.747-.148-.317-.43-.476-.845-.476-.511 0-.862.232-1.052.696-.099.246-.148.559-.148.94v3.34H137.2v-6.159h1.47v.9c.194-.317.377-.545.55-.685.312-.249.706-.374 1.183-.374.597 0 1.085.168 1.465.502zm6.821 5.061c-.49.642-1.234.964-2.231.964-.997 0-1.74-.322-2.23-.964-.49-.643-.735-1.417-.735-2.322 0-.89.245-1.66.734-2.313.49-.652 1.234-.978 2.231-.978.997 0 1.74.326 2.23.978.49.652.735 1.423.735 2.313 0 .905-.245 1.679-.734 2.322zm-1.214-.892c.237-.335.356-.812.356-1.43 0-.618-.119-1.094-.356-1.427-.238-.333-.579-.5-1.023-.5-.443 0-.785.167-1.024.5-.24.334-.36.81-.36 1.427 0 .618.12 1.095.36 1.43.24.335.58.503 1.024.503.444 0 .785-.168 1.023-.503zm4.584 1.646h-1.518v-8.343h1.518zm6.319-.754c-.49.642-1.233.964-2.23.964-.998 0-1.741-.322-2.231-.964-.49-.643-.735-1.417-.735-2.322 0-.89.245-1.66.735-2.313.49-.652 1.233-.978 2.23-.978.998 0 1.741.326 2.231.978.49.652.735 1.423.735 2.313 0 .905-.245 1.679-.735 2.322zm-1.214-.892c.238-.335.357-.812.357-1.43 0-.618-.12-1.094-.357-1.427-.237-.333-.578-.5-1.022-.5-.444 0-.785.167-1.025.5-.24.334-.36.81-.36 1.427 0 .618.12 1.095.36 1.43.24.335.581.503 1.025.503.444 0 .784-.168 1.022-.503zm5.906-4.528c.368.162.666.46.893.894v-.889h1.48v5.852c0 .797-.126 1.397-.378 1.8-.433.695-1.264 1.042-2.492 1.042-.742 0-1.347-.155-1.815-.465-.469-.309-.728-.771-.777-1.386h1.65c.043.189.112.324.207.407.164.147.439.22.826.22.546 0 .912-.193 1.096-.582.12-.249.181-.668.181-1.257v-.396c-.145.264-.301.462-.468.594-.302.246-.694.368-1.177.368-.745 0-1.34-.278-1.786-.834-.446-.557-.668-1.31-.668-2.262 0-.916.214-1.687.643-2.312.429-.624 1.037-.937 1.824-.937.29 0 .544.048.76.142zm.516 4.423c.244-.285.366-.739.366-1.362 0-.584-.116-1.03-.347-1.335a1.108 1.108 0 0 0-.93-.459c-.53 0-.896.266-1.098.798-.106.283-.159.632-.159 1.048 0 .358.057.677.17.956.205.52.572.781 1.103.781.353 0 .651-.143.895-.427zm3.502 2.934l.192.012c.149.007.29.001.425-.017a.738.738 0 0 0 .341-.13c.089-.065.171-.198.248-.402.076-.204.109-.329.098-.374l-2.132-6.44h1.687l1.267 4.55 1.198-4.55h1.613l-1.989 6.067c-.384 1.17-.689 1.895-.912 2.176-.224.28-.672.422-1.344.422a9.05 9.05 0 0 1-.693-.022v-1.292h.001z"/></svg>