<svg xmlns="http://www.w3.org/2000/svg" viewBox="35 0 168 33"><path fill="#ADB5BD" d="M52.033 5.842h-9.529v5.473h6.605v3.427h-6.605v14.373h9.529v3.416H35.989V1.622h16.044zm18.861 23.681v3.008H54.845V1.622h6.744v27.9zM98.295 6.147h-5.84V32.53h-6.704V6.147h-6.939V1.622h19.483zm8.545 26.384h-5.525V1.622h5.525zm45.632 0h-6.561V18.323l-6.018 14.208-5.82-14.208V32.53h-4.626V1.622h4.626l6.888 15.455 4.95-15.455h6.56zm9.955-15.949V6.098c3.75 0 7.841-.359 7.841 5.625s-5.228 4.94-7.841 4.86zm7.546-14.96h-14.269v30.91h6.723V21.75h7.891s6.163-.667 6.163-10.028c0-9.362-6.508-10.1-6.508-10.1zm20.32 28.748c-2.331 0-4.218-5.95-4.218-13.293 0-7.341 1.887-13.293 4.218-13.293 2.333 0 4.223 5.951 4.223 13.293 0 7.343-1.89 13.293-4.223 13.293zm0-28.748c-6.5 0-11.772 6.919-11.772 15.455 0 8.537 5.271 15.454 11.772 15.454 6.505 0 11.776-6.917 11.776-15.454 0-8.536-5.27-15.455-11.776-15.455zm-64.176 4.22h-9.537v5.473h6.607v3.427h-6.607v14.373h9.537v3.416h-16.05V1.622h16.05z"/></svg>