<svg xmlns="http://www.w3.org/2000/svg" fill="none" viewBox="0 0 465 453"><path fill="#4CB0FD" d="M72.6714 174.502C72.6714 174.451 72.72 174.451 72.72 174.4C73.4489 173.129 72.6228 172.417 71.7481 171.604C70.2416 170.129 68.6866 168.706 67.1801 167.231C62.9037 163.113 58.6273 158.995 54.3023 154.876C52.9416 153.555 50.366 149.741 48.3736 151.419C47.1101 152.487 46.041 153.961 44.9233 155.182C42.9795 157.317 40.9871 159.503 39.0433 161.639C35.8846 165.147 32.3371 168.502 29.4699 172.163C27.7205 174.4 31.3166 176.739 32.7258 178.163C36.7593 182.383 40.7927 186.603 44.8261 190.823C46.1868 192.246 48.6166 196.212 50.7548 194.636C54.934 191.484 58.6759 187.416 62.5149 183.857C65.9166 180.756 69.2697 177.654 72.6714 174.553C72.6228 174.604 72.6714 174.553 72.6714 174.502Z"/><path fill="#202327" d="M73 163.5H49C44.8 163.5 41.5 166.8 41.5 171V195C41.5 199.2 44.8 202.5 49 202.5H73C77.2 202.5 80.5 199.2 80.5 195V171C80.5 166.8 77.2 163.5 73 163.5ZM77.5 195C77.5 197.55 75.55 199.5 73 199.5H49C46.45 199.5 44.5 197.55 44.5 195V171C44.5 168.45 46.45 166.5 49 166.5H73C75.55 166.5 77.5 168.45 77.5 171V195Z"/><path fill="#202327" d="M71.5 169.5H50.5C48.85 169.5 47.5 170.85 47.5 172.5V175.5C47.5 177.15 48.85 178.5 50.5 178.5H71.5C73.15 178.5 74.5 177.15 74.5 175.5V172.5C74.5 170.85 73.15 169.5 71.5 169.5ZM71.5 175.5H50.5V172.5H71.5V175.5Z"/><path fill="#202327" d="M61 183C60.1 183 59.5 183.6 59.5 184.5V186C59.5 186.9 60.1 187.5 61 187.5C61.9 187.5 62.5 186.9 62.5 186V184.5C62.5 183.6 61.9 183 61 183Z"/><path fill="#202327" d="M55 183C54.1 183 53.5 183.6 53.5 184.5V186C53.5 186.9 54.1 187.5 55 187.5C55.9 187.5 56.5 186.9 56.5 186V184.5C56.5 183.6 55.9 183 55 183Z"/><path fill="#202327" d="M49 183C48.1 183 47.5 183.6 47.5 184.5V186C47.5 186.9 48.1 187.5 49 187.5C49.9 187.5 50.5 186.9 50.5 186V184.5C50.5 183.6 49.9 183 49 183Z"/><path fill="#202327" d="M61 190.5C60.1 190.5 59.5 191.1 59.5 192V193.5C59.5 194.4 60.1 195 61 195C61.9 195 62.5 194.4 62.5 193.5V192C62.5 191.1 61.9 190.5 61 190.5Z"/><path fill="#202327" d="M71.5 183H68.5C66.85 183 65.5 184.35 65.5 186V192C65.5 193.65 66.85 195 68.5 195H71.5C73.15 195 74.5 193.65 74.5 192V186C74.5 184.35 73.15 183 71.5 183ZM71.5 192H68.5V186H71.5V192Z"/><path fill="#202327" d="M55 190.5C54.1 190.5 53.5 191.1 53.5 192V193.5C53.5 194.4 54.1 195 55 195C55.9 195 56.5 194.4 56.5 193.5V192C56.5 191.1 55.9 190.5 55 190.5Z"/><path fill="#202327" d="M49 190.5C48.1 190.5 47.5 191.1 47.5 192V193.5C47.5 194.4 48.1 195 49 195C49.9 195 50.5 194.4 50.5 193.5V192C50.5 191.1 49.9 190.5 49 190.5Z"/><path fill="#202327" d="M198.8 357.6C197.7 351.8 192.9 347.4 187 347V346C187 345.4 186.6 345 186 345C185.4 345 185 345.4 185 346V347C179.2 347.4 174.3 351.8 173.2 357.6C173.1 357.9 172.9 359 173.8 359.4C174.6 359.8 175.3 359 175.5 358.6C175.9 358.2 176.4 358 177 358C177.7 358 178.4 358.4 178.7 359C179 359.5 179.5 359.7 180 359.7C180.5 359.7 181 359.4 181.3 359C181.7 358.4 182.3 358 183 358C183.7 358 184.4 358.4 184.7 358.9C184.7 359 184.9 359.3 185 359.6V368C185 368.6 184.6 369 184 369C183.4 369 183 368.6 183 368V367C183 366.4 182.6 366 182 366C181.4 366 181 366.4 181 367V368C181 369.7 182.3 371 184 371C185.7 371 187 369.7 187 368V359.7C187.1 359.4 187.2 359.1 187.3 359C187.7 358.4 188.3 358 189 358C189.7 358 190.4 358.4 190.7 359C191 359.5 191.5 359.7 192 359.7C192.5 359.7 193 359.4 193.3 359C193.7 358.4 194.3 358 195 358C195.6 358 196.1 358.2 196.5 358.6C196.8 359 197.4 359.7 198.2 359.4C199 359 198.8 358 198.8 357.6ZM195 356C193.8 356 192.8 356.5 192 357.4C191.2 356.6 190.2 356 189 356C187.8 356 186.8 356.5 186 357.4C185.2 356.6 184.2 356 183 356C181.8 356 180.8 356.5 180 357.4C179.2 356.6 178.2 356 177 356C176.5 356 176.1 356.1 175.7 356.2C177.3 351.9 181.3 349 186 349C190.7 349 194.8 352 196.3 356.2C195.9 356.1 195.5 356 195 356Z"/><path fill="#202327" d="M439.8 92.6C438.7 86.8 433.9 82.4 428 82V81C428 80.4 427.6 80 427 80C426.4 80 426 80.4 426 81V82C420.2 82.4 415.3 86.8 414.2 92.6C414.1 92.9 413.9 94 414.8 94.4C415.6 94.8 416.3 94 416.5 93.6C416.9 93.2 417.4 93 418 93C418.7 93 419.4 93.4 419.7 94C420 94.5 420.5 94.7 421 94.7C421.5 94.7 422 94.4 422.3 94C422.7 93.4 423.3 93 424 93C424.7 93 425.4 93.4 425.7 93.9C425.7 94 425.9 94.3 426 94.6V103C426 103.6 425.6 104 425 104C424.4 104 424 103.6 424 103V102C424 101.4 423.6 101 423 101C422.4 101 422 101.4 422 102V103C422 104.7 423.3 106 425 106C426.7 106 428 104.7 428 103V94.7C428.1 94.4 428.2 94.1 428.3 94C428.7 93.4 429.3 93 430 93C430.7 93 431.4 93.4 431.7 94C432 94.5 432.5 94.7 433 94.7C433.5 94.7 434 94.4 434.3 94C434.7 93.4 435.3 93 436 93C436.6 93 437.1 93.2 437.5 93.6C437.8 94 438.4 94.7 439.2 94.4C440 94 439.8 93 439.8 92.6ZM436 91C434.8 91 433.8 91.5 433 92.4C432.2 91.6 431.2 91 430 91C428.8 91 427.8 91.5 427 92.4C426.2 91.6 425.2 91 424 91C422.8 91 421.8 91.5 421 92.4C420.2 91.6 419.2 91 418 91C417.5 91 417.1 91.1 416.7 91.2C418.3 86.9 422.3 84 427 84C431.7 84 435.8 87 437.3 91.2C436.9 91.1 436.5 91 436 91Z"/><g clip-path="url(#clip0)"><path fill="#FF6565" d="M423 350.23C424.621 372.565 456.774 372.757 456.94 350.23C457.162 327.818 421.303 326.843 423 350.23Z"/></g><g clip-path="url(#clip1)"><path fill="#FEBE24" d="M166 102.176C167.239 119.256 191.827 119.402 191.954 102.176C192.124 85.037 164.702 84.2918 166 102.176Z"/></g><path fill="#202327" d="M457.7 335.6C457.7 335.6 457.7 335.5 457.7 335.6C457.6 335.4 457.5 335.3 457.4 335.1C457.3 334.9 457.2 334.8 457.1 334.7L452.3 329.9C452.2 329.8 452 329.7 451.9 329.6C451.8 329.5 451.6 329.4 451.5 329.4C451.5 329.4 451.5 329.4 451.4 329.4C451 329.1 450.6 329 450.2 329H441C439.3 329 438 330.3 438 332V335.7C435.6 336.8 434 339.2 434 342C434 344.8 435.6 347.2 438 348.3V352C438 353.7 439.3 355 441 355H455C456.7 355 458 353.7 458 352V336.8C458 336.4 457.9 336 457.7 335.6ZM454.6 335H452V332.4L454.6 335ZM436 342C436 339.2 438.2 337 441 337C443.8 337 446 339.2 446 342C446 344.8 443.8 347 441 347C438.2 347 436 344.8 436 342ZM455 353H441C440.4 353 440 352.6 440 352V348.9C440.3 348.9 440.7 349 441 349C444.9 349 448 345.9 448 342C448 338.1 444.9 335 441 335C440.7 335 440.3 335 440 335.1V332C440 331.4 440.4 331 441 331H450V335C450 336.1 450.9 337 452 337H456V352C456 352.6 455.6 353 455 353Z"/><path fill="#202327" d="M441 343C440.4 343 440 342.6 440 342V339C440 338.4 440.4 338 441 338C441.6 338 442 338.4 442 339V342C442 342.6 441.6 343 441 343Z"/><path fill="#202327" d="M442.5 344.5C442.2 344.5 442 344.4 441.8 344.2L440.3 342.7C439.9 342.3 439.9 341.7 440.3 341.3C440.7 340.9 441.3 340.9 441.7 341.3L443.2 342.8C443.6 343.2 443.6 343.8 443.2 344.2C443 344.4 442.8 344.5 442.5 344.5Z"/><path fill="#202327" d="M83.7 22.6C83.7 22.6 83.7 22.5 83.7 22.6C83.6 22.4 83.5 22.3 83.4 22.1C83.3 21.9 83.2 21.8 83.1 21.7L78.3 16.9C78.2 16.8 78 16.7 77.9 16.6C77.8 16.5 77.6 16.4 77.5 16.4C77.5 16.4 77.5 16.4 77.4 16.4C77 16.1 76.6 16 76.2 16H67C65.3 16 64 17.3 64 19V22.7C61.6 23.8 60 26.2 60 29C60 31.8 61.6 34.2 64 35.3V39C64 40.7 65.3 42 67 42H81C82.7 42 84 40.7 84 39V23.8C84 23.4 83.9 23 83.7 22.6ZM80.6 22H78V19.4L80.6 22ZM62 29C62 26.2 64.2 24 67 24C69.8 24 72 26.2 72 29C72 31.8 69.8 34 67 34C64.2 34 62 31.8 62 29ZM81 40H67C66.4 40 66 39.6 66 39V35.9C66.3 35.9 66.7 36 67 36C70.9 36 74 32.9 74 29C74 25.1 70.9 22 67 22C66.7 22 66.3 22 66 22.1V19C66 18.4 66.4 18 67 18H76V22C76 23.1 76.9 24 78 24H82V39C82 39.6 81.6 40 81 40Z"/><path fill="#202327" d="M67 30C66.4 30 66 29.6 66 29V26C66 25.4 66.4 25 67 25C67.6 25 68 25.4 68 26V29C68 29.6 67.6 30 67 30Z"/><path fill="#202327" d="M68.5 31.5C68.2 31.5 68 31.4 67.8 31.2L66.3 29.7C65.9 29.3 65.9 28.7 66.3 28.3C66.7 27.9 67.3 27.9 67.7 28.3L69.2 29.8C69.6 30.2 69.6 30.8 69.2 31.2C69 31.4 68.8 31.5 68.5 31.5Z"/><path fill="#202327" d="M302 322.375H284C280.85 322.375 278.375 324.85 278.375 328V343.75C278.375 346.45 280.288 348.7 282.875 349.262V350.5C282.875 351.175 283.325 351.625 284 351.625C284.675 351.625 285.125 351.175 285.125 350.5V349.375H300.875V350.5C300.875 351.175 301.325 351.625 302 351.625C302.675 351.625 303.125 351.175 303.125 350.5V349.262C305.712 348.7 307.625 346.45 307.625 343.75V328C307.625 324.85 305.15 322.375 302 322.375ZM305.375 343.75C305.375 345.663 303.913 347.125 302 347.125H284C282.087 347.125 280.625 345.663 280.625 343.75V328C280.625 326.087 282.087 324.625 284 324.625H302C303.913 324.625 305.375 326.087 305.375 328V343.75Z"/><path fill="#202327" d="M299.75 326.875H286.25C284.337 326.875 282.875 328.337 282.875 330.25V341.5C282.875 343.413 284.337 344.875 286.25 344.875H299.75C301.663 344.875 303.125 343.413 303.125 341.5V330.25C303.125 328.337 301.663 326.875 299.75 326.875ZM299.75 342.625H286.25C285.575 342.625 285.125 342.175 285.125 341.5V330.25C285.125 329.575 285.575 329.125 286.25 329.125H299.75C300.425 329.125 300.875 329.575 300.875 330.25V331.375H299.75C299.075 331.375 298.625 331.825 298.625 332.5C298.625 333.175 299.075 333.625 299.75 333.625H300.875V338.125H299.75C299.075 338.125 298.625 338.575 298.625 339.25C298.625 339.925 299.075 340.375 299.75 340.375H300.875V341.5C300.875 342.175 300.425 342.625 299.75 342.625Z"/><path fill="#202327" d="M296.375 334.75H295.025C294.688 333.85 293.9 333.062 293 332.725V331.375C293 330.7 292.55 330.25 291.875 330.25C291.2 330.25 290.75 330.7 290.75 331.375V332.725C289.85 333.062 289.062 333.85 288.725 334.75H287.375C286.7 334.75 286.25 335.2 286.25 335.875C286.25 336.55 286.7 337 287.375 337H288.725C289.062 337.9 289.85 338.687 290.75 339.025V340.375C290.75 341.05 291.2 341.5 291.875 341.5C292.55 341.5 293 341.05 293 340.375V339.025C293.9 338.687 294.688 337.9 295.025 337H296.375C297.05 337 297.5 336.55 297.5 335.875C297.5 335.2 297.05 334.75 296.375 334.75ZM291.875 337C291.2 337 290.75 336.55 290.75 335.875C290.75 335.2 291.2 334.75 291.875 334.75C292.55 334.75 293 335.2 293 335.875C293 336.55 292.55 337 291.875 337Z"/><g clip-path="url(#clip2)"><path fill="#FEBE24" d="M61.9999 400.297C64.0974 429.202 105.708 429.45 105.923 400.297C106.21 371.294 59.8037 370.032 61.9999 400.297Z"/></g><path fill="#4CB0FD" d="M382.15 420.091C351.218 417.658 367.162 465.141 390.441 448.427C401.83 440.273 397.958 421.352 382.15 420.091Z"/><path fill="#202327" d="M111.75 389.719H81.25C75.9125 389.719 71.7188 393.912 71.7188 399.25V425.938C71.7188 430.513 74.9594 434.325 79.3438 435.278V437.375C79.3438 438.519 80.1062 439.281 81.25 439.281C82.3938 439.281 83.1562 438.519 83.1562 437.375V435.469H109.844V437.375C109.844 438.519 110.606 439.281 111.75 439.281C112.894 439.281 113.656 438.519 113.656 437.375V435.278C118.041 434.325 121.281 430.513 121.281 425.938V399.25C121.281 393.912 117.088 389.719 111.75 389.719ZM117.469 425.938C117.469 429.178 114.991 431.656 111.75 431.656H81.25C78.0094 431.656 75.5312 429.178 75.5312 425.938V399.25C75.5312 396.009 78.0094 393.531 81.25 393.531H111.75C114.991 393.531 117.469 396.009 117.469 399.25V425.938Z"/><path fill="#202327" d="M107.938 397.344H85.0625C81.8219 397.344 79.3438 399.822 79.3438 403.062V422.125C79.3438 425.366 81.8219 427.844 85.0625 427.844H107.938C111.178 427.844 113.656 425.366 113.656 422.125V403.062C113.656 399.822 111.178 397.344 107.938 397.344ZM107.938 424.031H85.0625C83.9187 424.031 83.1562 423.269 83.1562 422.125V403.062C83.1562 401.919 83.9187 401.156 85.0625 401.156H107.938C109.081 401.156 109.844 401.919 109.844 403.062V404.969H107.938C106.794 404.969 106.031 405.731 106.031 406.875C106.031 408.019 106.794 408.781 107.938 408.781H109.844V416.406H107.938C106.794 416.406 106.031 417.169 106.031 418.312C106.031 419.456 106.794 420.219 107.938 420.219H109.844V422.125C109.844 423.269 109.081 424.031 107.938 424.031Z"/><path fill="#202327" d="M102.219 410.688H99.9313C99.3594 409.162 98.025 407.828 96.5 407.256V404.969C96.5 403.825 95.7375 403.062 94.5938 403.062C93.45 403.062 92.6875 403.825 92.6875 404.969V407.256C91.1625 407.828 89.8281 409.162 89.2562 410.688H86.9688C85.825 410.688 85.0625 411.45 85.0625 412.594C85.0625 413.738 85.825 414.5 86.9688 414.5H89.2562C89.8281 416.025 91.1625 417.359 92.6875 417.931V420.219C92.6875 421.362 93.45 422.125 94.5938 422.125C95.7375 422.125 96.5 421.362 96.5 420.219V417.931C98.025 417.359 99.3594 416.025 99.9313 414.5H102.219C103.362 414.5 104.125 413.738 104.125 412.594C104.125 411.45 103.362 410.688 102.219 410.688ZM94.5938 414.5C93.45 414.5 92.6875 413.738 92.6875 412.594C92.6875 411.45 93.45 410.688 94.5938 410.688C95.7375 410.688 96.5 411.45 96.5 412.594C96.5 413.738 95.7375 414.5 94.5938 414.5Z"/><path fill="#202327" d="M119 276H116V274C116 272.3 114.7 271 113 271H107C105.3 271 104 272.3 104 274V276H101C98.8 276 97 277.8 97 280V291C97 292.9 98.3 294.4 100 294.9V296C100 296.6 100.4 297 101 297C101.6 297 102 296.6 102 296V295H118V296C118 296.6 118.4 297 119 297C119.6 297 120 296.6 120 296V294.9C121.7 294.5 123 292.9 123 291V280C123 277.8 121.2 276 119 276ZM105 278H109V279C109 279.6 109.4 280 110 280C110.6 280 111 279.6 111 279V278H115H116V293H104V278H105ZM106 274C106 273.4 106.4 273 107 273H113C113.6 273 114 273.4 114 274V276H106V274ZM99 291V280C99 278.9 99.9 278 101 278H102V293H101C99.9 293 99 292.1 99 291ZM121 291C121 292.1 120.1 293 119 293H118V278H119C120.1 278 121 278.9 121 280V291Z"/><path fill="#202327" d="M196 85H193V83C193 81.3 191.7 80 190 80H184C182.3 80 181 81.3 181 83V85H178C175.8 85 174 86.8 174 89V100C174 101.9 175.3 103.4 177 103.9V105C177 105.6 177.4 106 178 106C178.6 106 179 105.6 179 105V104H195V105C195 105.6 195.4 106 196 106C196.6 106 197 105.6 197 105V103.9C198.7 103.5 200 101.9 200 100V89C200 86.8 198.2 85 196 85ZM182 87H186V88C186 88.6 186.4 89 187 89C187.6 89 188 88.6 188 88V87H192H193V102H181V87H182ZM183 83C183 82.4 183.4 82 184 82H190C190.6 82 191 82.4 191 83V85H183V83ZM176 100V89C176 87.9 176.9 87 178 87H179V102H178C176.9 102 176 101.1 176 100ZM198 100C198 101.1 197.1 102 196 102H195V87H196C197.1 87 198 87.9 198 89V100Z"/><path fill="#202327" d="M25 107C27.2 107 29 105.2 29 103C29 100.8 27.2 98.9999 25 98.9999C22.8 98.9999 21 100.8 21 103C21 103.5 21.1 103.9 21.2 104.3L19.5 105.4C18.6 104.5 17.4 104 16 103.9L15.5 101.5C16.4 101 17 99.9999 17 98.8999C17 97.1999 15.7 95.8999 14 95.8999C12.3 95.8999 11 97.1999 11 98.8999C11 100.4 12.1 101.6 13.6 101.9L14.1 104.3C13.2 104.7 12.4 105.3 11.9 106.2L9.1 105.1V105C9.1 103.3 7.8 102 6.1 102C4.4 102 3.1 103.3 3.1 105C3.1 106.7 4.4 108 6.1 108C7 108 7.8 107.6 8.3 107L11.1 108.1C11 108.4 11 108.7 11 109C11 110 11.3 111 11.8 111.8L9 114.6C8.4 114.2 7.7 114 7 114C4.8 114 3 115.8 3 118C3 120.2 4.8 122 7 122C9.2 122 11 120.2 11 118C11 117.3 10.8 116.6 10.4 116L13.2 113.2C14 113.7 14.9 114 16 114C17.1 114 18 113.7 18.8 113.2L21.3 115.7C21.1 116.1 21 116.5 21 117C21 118.7 22.3 120 24 120C25.7 120 27 118.7 27 117C27 115.3 25.7 114 24 114C23.5 114 23.1 114.1 22.7 114.3L20.2 111.8C20.7 111 21 110.1 21 109C21 108.3 20.9 107.7 20.6 107.1L22.3 106C23.1 106.6 24 107 25 107ZM25 101C26.1 101 27 101.9 27 103C27 104.1 26.1 105 25 105C23.9 105 23 104.1 23 103C23 101.9 23.9 101 25 101ZM6 106C5.4 106 5 105.6 5 105C5 104.4 5.4 104 6 104C6.6 104 7 104.4 7 105C7 105.6 6.6 106 6 106ZM7 120C5.9 120 5 119.1 5 118C5 116.9 5.9 116 7 116C8.1 116 9 116.9 9 118C9 119.1 8.1 120 7 120ZM14 99.9999C13.4 99.9999 13 99.5999 13 98.9999C13 98.3999 13.4 97.9999 14 97.9999C14.6 97.9999 15 98.3999 15 98.9999C15 99.5999 14.6 99.9999 14 99.9999ZM16.7 111.9C16.5 112 16.2 112 16 112C15.8 112 15.5 112 15.3 111.9C14.2 111.6 13.3 110.8 13.1 109.7C13.1 109.5 13 109.3 13 109C13 108.1 13.4 107.3 14.1 106.7C14.6 106.3 15.3 106 16 106C17.5 106 18.7 107.1 19 108.5C19 108.7 19 108.8 19 109C19 109.2 19 109.5 18.9 109.7C18.7 110.8 17.8 111.7 16.7 111.9ZM24 116C24.6 116 25 116.4 25 117C25 117.6 24.6 118 24 118C23.4 118 23 117.6 23 117C23 116.4 23.4 116 24 116Z"/><g clip-path="url(#clip3)"><path fill="#4CB0FD" d="M319 34.2975C321.097 63.2022 362.708 63.4501 362.923 34.2975C363.21 5.29356 316.804 4.03242 319 34.2975Z"/></g><path fill="#202327" d="M377.969 24.0625C381.75 24.0625 384.844 20.9688 384.844 17.1875C384.844 13.4063 381.75 10.3125 377.969 10.3125C374.188 10.3125 371.094 13.4063 371.094 17.1875C371.094 18.0469 371.266 18.7344 371.437 19.4219L368.516 21.3125C366.969 19.7656 364.906 18.9062 362.5 18.7344L361.641 14.6094C363.188 13.75 364.219 12.0312 364.219 10.1406C364.219 7.21875 361.984 4.98438 359.062 4.98438C356.141 4.98438 353.906 7.21875 353.906 10.1406C353.906 12.7188 355.797 14.7812 358.375 15.2969L359.234 19.4219C357.687 20.1094 356.313 21.1406 355.453 22.6875L350.641 20.7969V20.625C350.641 17.7031 348.406 15.4688 345.484 15.4688C342.562 15.4688 340.328 17.7031 340.328 20.625C340.328 23.5469 342.562 25.7813 345.484 25.7813C347.031 25.7813 348.406 25.0938 349.266 24.0625L354.078 25.9531C353.906 26.4688 353.906 26.9844 353.906 27.5C353.906 29.2188 354.422 30.9375 355.281 32.3125L350.469 37.125C349.438 36.4375 348.234 36.0938 347.031 36.0938C343.25 36.0938 340.156 39.1875 340.156 42.9688C340.156 46.75 343.25 49.8438 347.031 49.8438C350.812 49.8438 353.906 46.75 353.906 42.9688C353.906 41.7656 353.563 40.5625 352.875 39.5313L357.687 34.7188C359.062 35.5781 360.609 36.0938 362.5 36.0938C364.391 36.0938 365.938 35.5781 367.313 34.7188L371.609 39.0156C371.266 39.7031 371.094 40.3906 371.094 41.25C371.094 44.1719 373.328 46.4063 376.25 46.4063C379.172 46.4063 381.406 44.1719 381.406 41.25C381.406 38.3281 379.172 36.0938 376.25 36.0938C375.391 36.0938 374.703 36.2656 374.016 36.6094L369.719 32.3125C370.578 30.9375 371.094 29.3906 371.094 27.5C371.094 26.2969 370.922 25.2656 370.406 24.2344L373.328 22.3438C374.703 23.375 376.25 24.0625 377.969 24.0625ZM377.969 13.75C379.859 13.75 381.406 15.2969 381.406 17.1875C381.406 19.0781 379.859 20.625 377.969 20.625C376.078 20.625 374.531 19.0781 374.531 17.1875C374.531 15.2969 376.078 13.75 377.969 13.75ZM345.312 22.3438C344.281 22.3438 343.594 21.6563 343.594 20.625C343.594 19.5938 344.281 18.9063 345.312 18.9063C346.344 18.9063 347.031 19.5938 347.031 20.625C347.031 21.6563 346.344 22.3438 345.312 22.3438ZM347.031 46.4063C345.141 46.4063 343.594 44.8594 343.594 42.9688C343.594 41.0781 345.141 39.5313 347.031 39.5313C348.922 39.5313 350.469 41.0781 350.469 42.9688C350.469 44.8594 348.922 46.4063 347.031 46.4063ZM359.062 12.0313C358.031 12.0313 357.344 11.3438 357.344 10.3125C357.344 9.28126 358.031 8.59376 359.062 8.59376C360.094 8.59376 360.781 9.28126 360.781 10.3125C360.781 11.3438 360.094 12.0313 359.062 12.0313ZM363.703 32.4844C363.359 32.6562 362.844 32.6563 362.5 32.6563C362.156 32.6563 361.641 32.6562 361.297 32.4844C359.406 31.9688 357.859 30.5938 357.516 28.7031C357.516 28.3594 357.344 28.0156 357.344 27.5C357.344 25.9531 358.031 24.5781 359.234 23.5469C360.094 22.8594 361.297 22.3438 362.5 22.3438C365.078 22.3438 367.141 24.2344 367.656 26.6406C367.656 26.9844 367.656 27.1563 367.656 27.5C367.656 27.8438 367.656 28.3594 367.484 28.7031C367.141 30.5938 365.594 32.1406 363.703 32.4844ZM376.25 39.5313C377.281 39.5313 377.969 40.2188 377.969 41.25C377.969 42.2813 377.281 42.9688 376.25 42.9688C375.219 42.9688 374.531 42.2813 374.531 41.25C374.531 40.2188 375.219 39.5313 376.25 39.5313Z"/><path fill="#202327" d="M314 92H313.5C313.1 91.3 312.5 90.8 311.7 90.5L311 90.3C310.7 90.2 310.5 90.1 310.4 89.8L310 89.3C309.4 88.5 308.4 88 307.3 88H306.6C305.6 88 304.6 88.5 303.9 89.3L303.5 89.8C303.3 90 303.1 90.2 302.9 90.3L302.2 90.5C301.4 90.8 300.8 91.3 300.4 92H300C297.8 92 296 93.8 296 96V110C296 112.2 297.8 114 300 114H314C316.2 114 318 112.2 318 110V96C318 93.8 316.2 92 314 92ZM302.9 92.4L303.6 92.2C304.2 92 304.8 91.6 305.2 91L305.6 90.5C305.8 90.2 306.2 90 306.7 90H307.4C307.8 90 308.2 90.2 308.5 90.5L308.9 91C309.3 91.5 309.9 91.9 310.5 92.2L311.2 92.4C311.7 92.6 312.1 93.1 312.1 93.7C312.1 94.4 311.5 95 310.8 95H303.4C302.7 95 302.1 94.4 302.1 93.7C302 93.1 302.4 92.6 302.9 92.4ZM316 110C316 111.1 315.1 112 314 112H300C298.9 112 298 111.1 298 110V96C298 94.9 298.9 94 300 94C300.2 95.7 301.6 97 303.3 97H310.7C312.4 97 313.8 95.7 314 94C315.1 94 316 94.9 316 96V110Z"/><path fill="#202327" d="M303.3 99.3L302 100.6L301.7 100.3C301.3 99.9 300.7 99.9 300.3 100.3C299.9 100.7 299.9 101.3 300.3 101.7L301.3 102.7C301.5 102.9 301.8 103 302 103C302.2 103 302.5 102.9 302.7 102.7L304.7 100.7C305.1 100.3 305.1 99.7 304.7 99.3C304.3 98.9 303.7 98.9 303.3 99.3Z"/><path fill="#202327" d="M303.3 105.3L302 106.6L301.7 106.3C301.3 105.9 300.7 105.9 300.3 106.3C299.9 106.7 299.9 107.3 300.3 107.7L301.3 108.7C301.5 108.9 301.8 109 302 109C302.2 109 302.5 108.9 302.7 108.7L304.7 106.7C305.1 106.3 305.1 105.7 304.7 105.3C304.3 104.9 303.7 104.9 303.3 105.3Z"/><path fill="#202327" d="M313 100H307C306.4 100 306 100.4 306 101C306 101.6 306.4 102 307 102H313C313.6 102 314 101.6 314 101C314 100.4 313.6 100 313 100Z"/><path fill="#202327" d="M313 106H307C306.4 106 306 106.4 306 107C306 107.6 306.4 108 307 108H313C313.6 108 314 107.6 314 107C314 106.4 313.6 106 313 106Z"/><path fill="#202327" d="M375 428H374.5C374.1 427.3 373.5 426.8 372.7 426.5L372 426.3C371.7 426.2 371.5 426.1 371.4 425.8L371 425.3C370.4 424.5 369.4 424 368.3 424H367.6C366.6 424 365.6 424.5 364.9 425.3L364.5 425.8C364.3 426 364.1 426.2 363.9 426.3L363.2 426.5C362.4 426.8 361.8 427.3 361.4 428H361C358.8 428 357 429.8 357 432V446C357 448.2 358.8 450 361 450H375C377.2 450 379 448.2 379 446V432C379 429.8 377.2 428 375 428ZM363.9 428.4L364.6 428.2C365.2 428 365.8 427.6 366.2 427L366.6 426.5C366.8 426.2 367.2 426 367.7 426H368.4C368.8 426 369.2 426.2 369.5 426.5L369.9 427C370.3 427.5 370.9 427.9 371.5 428.2L372.2 428.4C372.7 428.6 373.1 429.1 373.1 429.7C373.1 430.4 372.5 431 371.8 431H364.4C363.7 431 363.1 430.4 363.1 429.7C363 429.1 363.4 428.6 363.9 428.4ZM377 446C377 447.1 376.1 448 375 448H361C359.9 448 359 447.1 359 446V432C359 430.9 359.9 430 361 430C361.2 431.7 362.6 433 364.3 433H371.7C373.4 433 374.8 431.7 375 430C376.1 430 377 430.9 377 432V446Z"/><path fill="#202327" d="M364.3 435.3L363 436.6L362.7 436.3C362.3 435.9 361.7 435.9 361.3 436.3C360.9 436.7 360.9 437.3 361.3 437.7L362.3 438.7C362.5 438.9 362.8 439 363 439C363.2 439 363.5 438.9 363.7 438.7L365.7 436.7C366.1 436.3 366.1 435.7 365.7 435.3C365.3 434.9 364.7 434.9 364.3 435.3Z"/><path fill="#202327" d="M364.3 441.3L363 442.6L362.7 442.3C362.3 441.9 361.7 441.9 361.3 442.3C360.9 442.7 360.9 443.3 361.3 443.7L362.3 444.7C362.5 444.9 362.8 445 363 445C363.2 445 363.5 444.9 363.7 444.7L365.7 442.7C366.1 442.3 366.1 441.7 365.7 441.3C365.3 440.9 364.7 440.9 364.3 441.3Z"/><path fill="#202327" d="M374 436H368C367.4 436 367 436.4 367 437C367 437.6 367.4 438 368 438H374C374.6 438 375 437.6 375 437C375 436.4 374.6 436 374 436Z"/><path fill="#202327" d="M374 442H368C367.4 442 367 442.4 367 443C367 443.6 367.4 444 368 444H374C374.6 444 375 443.6 375 443C375 442.4 374.6 442 374 442Z"/><path fill="#92DA0D" d="M243.581 203.125C201.049 199.78 222.973 265.068 254.982 242.087C270.642 230.875 265.317 204.859 243.581 203.125Z"/><path fill="#202327" d="M246.562 197.562H245.594C244.819 196.206 243.656 195.238 242.106 194.656L240.75 194.269C240.169 194.075 239.781 193.881 239.587 193.3L238.812 192.331C237.65 190.781 235.712 189.812 233.581 189.812H232.225C230.288 189.812 228.35 190.781 226.994 192.331L226.219 193.3C225.831 193.688 225.444 194.075 225.056 194.269L223.7 194.656C222.15 195.238 220.987 196.206 220.212 197.562H219.438C215.175 197.562 211.688 201.05 211.688 205.312V232.438C211.688 236.7 215.175 240.188 219.438 240.188H246.562C250.825 240.188 254.312 236.7 254.312 232.438V205.312C254.312 201.05 250.825 197.562 246.562 197.562ZM225.056 198.337L226.413 197.95C227.575 197.562 228.737 196.787 229.512 195.625L230.288 194.656C230.675 194.075 231.45 193.688 232.419 193.688H233.775C234.55 193.688 235.325 194.075 235.906 194.656L236.681 195.625C237.456 196.594 238.619 197.369 239.781 197.95L241.138 198.337C242.106 198.725 242.881 199.694 242.881 200.856C242.881 202.212 241.719 203.375 240.362 203.375H226.025C224.669 203.375 223.506 202.212 223.506 200.856C223.313 199.694 224.087 198.725 225.056 198.337ZM250.438 232.438C250.438 234.569 248.694 236.312 246.562 236.312H219.438C217.306 236.312 215.562 234.569 215.562 232.438V205.312C215.562 203.181 217.306 201.438 219.438 201.438C219.825 204.731 222.538 207.25 225.831 207.25H240.169C243.463 207.25 246.175 204.731 246.562 201.438C248.694 201.438 250.438 203.181 250.438 205.312V232.438Z"/><path fill="#202327" d="M225.831 211.706L223.312 214.225L222.731 213.644C221.956 212.869 220.794 212.869 220.019 213.644C219.244 214.419 219.244 215.581 220.019 216.356L221.956 218.294C222.344 218.681 222.925 218.875 223.312 218.875C223.7 218.875 224.281 218.681 224.669 218.294L228.544 214.419C229.319 213.644 229.319 212.481 228.544 211.706C227.769 210.931 226.606 210.931 225.831 211.706Z"/><path fill="#202327" d="M225.831 223.331L223.312 225.85L222.731 225.269C221.956 224.494 220.794 224.494 220.019 225.269C219.244 226.044 219.244 227.206 220.019 227.981L221.956 229.919C222.344 230.306 222.925 230.5 223.312 230.5C223.7 230.5 224.281 230.306 224.669 229.919L228.544 226.044C229.319 225.269 229.319 224.106 228.544 223.331C227.769 222.556 226.606 222.556 225.831 223.331Z"/><path fill="#202327" d="M244.625 213.062H233C231.837 213.062 231.062 213.837 231.062 215C231.062 216.163 231.837 216.938 233 216.938H244.625C245.788 216.938 246.562 216.163 246.562 215C246.562 213.837 245.788 213.062 244.625 213.062Z"/><path fill="#202327" d="M244.625 224.688H233C231.837 224.688 231.062 225.462 231.062 226.625C231.062 227.788 231.837 228.562 233 228.562H244.625C245.788 228.562 246.562 227.788 246.562 226.625C246.562 225.462 245.788 224.688 244.625 224.688Z"/><path fill="#FEBE24" d="M442.671 201.502C442.671 201.451 442.72 201.451 442.72 201.4C443.449 200.129 442.623 199.417 441.748 198.604C440.242 197.129 438.687 195.706 437.18 194.231C432.904 190.113 428.627 185.995 424.302 181.876C422.942 180.555 420.366 176.741 418.374 178.419C417.11 179.487 416.041 180.961 414.923 182.182C412.98 184.317 410.987 186.503 409.043 188.639C405.885 192.147 402.337 195.502 399.47 199.163C397.721 201.4 401.317 203.739 402.726 205.163C406.759 209.383 410.793 213.603 414.826 217.823C416.187 219.246 418.617 223.212 420.755 221.636C424.934 218.484 428.676 214.416 432.515 210.857C435.917 207.756 439.27 204.654 442.671 201.553C442.623 201.604 442.671 201.553 442.671 201.502Z"/><path fill="#202327" d="M414 217C413.1 217 412.5 217.6 412.5 218.5C412.5 219.4 413.25 220 414 220C414.75 220 415.5 219.4 415.5 218.5C415.5 217.6 414.75 217 414 217Z"/><path fill="#202327" d="M418.5 217C417.6 217 417 217.6 417 218.5C417 219.4 417.75 220 418.5 220C419.25 220 420 219.4 420 218.5C420 217.6 419.25 217 418.5 217Z"/><path fill="#202327" d="M423 217C422.1 217 421.5 217.6 421.5 218.5C421.5 219.4 422.25 220 423 220C423.75 220 424.5 219.4 424.5 218.5C424.5 217.6 423.75 217 423 217Z"/><path fill="#202327" d="M423 203.5H418.5V199C418.5 194.8 415.2 191.5 411 191.5H399C394.8 191.5 391.5 194.8 391.5 199V206.5C391.5 210.1 394.05 213.1 397.5 213.85V215.35C397.5 216.55 398.1 217.6 399.15 218.05C399.6 218.2 400.05 218.35 400.5 218.35C401.1 218.35 401.85 218.2 402.3 217.75L403.5 216.85V218.5C403.5 222.7 406.8 226 411 226H414.9L419.55 229.75C420.15 230.2 420.75 230.35 421.35 230.35C421.8 230.35 422.25 230.2 422.7 230.05C423.75 229.6 424.35 228.55 424.35 227.35V225.85C427.8 225.1 430.35 222.1 430.35 218.5V211C430.5 206.8 427.2 203.5 423 203.5ZM400.5 215.35V212.5C400.5 211.6 399.9 211 399 211C396.45 211 394.5 209.05 394.5 206.5V199C394.5 196.45 396.45 194.5 399 194.5H411C413.55 194.5 415.5 196.45 415.5 199V206.5C415.5 209.05 413.55 211 411 211H406.5C406.2 211 405.9 211.15 405.6 211.3L400.5 215.35ZM427.5 218.5C427.5 221.05 425.55 223 423 223C422.1 223 421.5 223.6 421.5 224.5V227.35L416.4 223.3C416.1 223.15 415.8 223 415.5 223H411C408.45 223 406.5 221.05 406.5 218.5V214.45L407.1 214H411C415.2 214 418.5 210.7 418.5 206.5H423C425.55 206.5 427.5 208.45 427.5 211V218.5Z"/><path fill="#202327" d="M403.8 199.45C403.95 199 404.4 198.85 404.85 198.85C405.45 198.85 405.9 199.3 405.9 200.05C405.9 201.7 404.1 202 403.5 203.5C403.2 204.25 403.8 204.85 404.55 204.85H405.15C405.6 204.85 406.05 204.55 406.2 204.1C406.2 203.95 406.35 203.65 406.5 203.65C407.25 202.9 408.45 202.15 408.45 199.9C408.45 197.8 406.8 196.75 404.85 196.75C403.5 196.75 402.15 197.35 401.55 198.55C401.1 199.3 401.7 200.05 402.6 200.05H402.9C403.35 200.2 403.65 199.9 403.8 199.45Z"/><path fill="#202327" d="M406.35 207.25C406.35 206.35 405.6 205.75 404.85 205.75C403.95 205.75 403.35 206.35 403.35 207.25C403.35 208.15 404.1 208.75 404.85 208.75C405.6 208.75 406.35 208.15 406.35 207.25Z"/><path fill="#B3B8BC" d="M280.158 224V214.2H278.758L275.384 221.396L275.104 222.026L274.838 221.396L271.478 214.2H270.078V224H271.352V216.706L271.618 217.434L274.6 224H275.622L278.618 217.434L278.884 216.706V224H280.158ZM288.307 220.374C288.307 217.994 286.949 216.79 285.101 216.79C283.043 216.79 281.699 218.358 281.699 220.486C281.699 222.712 283.113 224.154 285.101 224.154C286.725 224.154 287.817 223.286 288.237 221.886H287.033C286.753 222.628 286.067 223.034 285.129 223.034C283.925 223.034 283.043 222.25 282.959 220.948H288.307V220.374ZM282.959 219.87C283.099 218.736 283.897 217.91 285.101 217.91C286.277 217.91 287.075 218.666 287.089 219.87H282.959ZM295.977 220.374C295.977 217.994 294.619 216.79 292.771 216.79C290.713 216.79 289.369 218.358 289.369 220.486C289.369 222.712 290.783 224.154 292.771 224.154C294.395 224.154 295.487 223.286 295.907 221.886H294.703C294.423 222.628 293.737 223.034 292.799 223.034C291.595 223.034 290.713 222.25 290.629 220.948H295.977V220.374ZM290.629 219.87C290.769 218.736 291.567 217.91 292.771 217.91C293.947 217.91 294.745 218.666 294.759 219.87H290.629ZM299.126 216.944L299.14 215.18H297.922L297.908 216.944H296.592V218.064H297.908L297.88 222.068C297.866 223.51 298.552 224.098 299.882 224.098C300.4 224.098 300.722 224.028 300.932 223.944V222.866C300.722 222.936 300.484 222.992 300.092 222.992C299.28 222.992 299.084 222.614 299.084 221.844L299.112 218.064H300.932V216.944H299.126ZM303.042 213.948C302.58 213.948 302.216 214.312 302.216 214.774C302.216 215.222 302.58 215.586 303.042 215.586C303.504 215.586 303.882 215.222 303.882 214.774C303.882 214.312 303.504 213.948 303.042 213.948ZM303.644 224V216.944H302.44V224H303.644ZM308.924 216.79C307.93 216.79 307.258 217.294 306.936 217.91L306.866 216.944H305.788V224H306.992V220.22C306.992 218.778 307.706 217.966 308.63 217.966C309.484 217.966 310.002 218.54 310.002 219.632V224H311.22V219.436C311.22 217.882 310.436 216.79 308.924 216.79ZM319.232 216.944H316.67C316.362 216.846 316.026 216.79 315.662 216.79C314.01 216.79 312.946 217.868 312.946 219.324C312.946 219.87 313.1 220.374 313.394 220.78C312.988 221.088 312.666 221.578 312.666 222.222C312.666 222.936 313.128 223.454 313.604 223.692C313.198 223.916 312.834 224.294 312.834 224.966C312.834 226.352 313.912 227.164 315.914 227.164C317.72 227.164 318.854 226.282 318.854 224.784C318.854 223.608 318.126 222.866 316.628 222.866H314.752C314.22 222.866 313.856 222.614 313.856 222.152C313.856 221.844 313.982 221.606 314.15 221.452C314.556 221.69 315.074 221.83 315.662 221.83C317.3 221.83 318.35 220.724 318.35 219.324C318.35 218.834 318.224 218.386 318.014 218.008H319.232V216.944ZM315.648 220.766C314.724 220.766 314.136 220.136 314.136 219.324C314.136 218.484 314.71 217.854 315.648 217.854C316.586 217.854 317.16 218.484 317.16 219.324C317.16 220.136 316.586 220.766 315.648 220.766ZM315.046 223.93H316.39C317.174 223.93 317.664 224.182 317.664 224.84C317.664 225.68 317.006 226.1 315.914 226.1C314.724 226.1 314.024 225.694 314.024 224.924C314.024 224.238 314.514 223.958 315.046 223.93ZM322.2 216.79C320.674 216.79 319.862 217.812 319.862 218.932C319.862 220.094 320.562 220.612 322.032 220.948C323.194 221.214 323.502 221.494 323.502 222.082C323.502 222.628 323.096 223.034 322.284 223.034C321.402 223.034 320.926 222.6 320.912 221.858H319.68C319.708 223.23 320.618 224.154 322.256 224.154C323.67 224.154 324.734 223.37 324.734 221.998C324.734 220.864 324.104 220.276 322.424 219.884C321.374 219.632 321.094 219.408 321.094 218.862C321.094 218.344 321.43 217.91 322.172 217.91C322.928 217.91 323.278 218.274 323.292 219.016H324.524C324.496 217.686 323.572 216.79 322.2 216.79Z"/><path fill="#B3B8BC" d="M102.422 188L98.488 178.2H97.172L93.238 188H94.638L95.66 185.41H99.986L101.022 188H102.422ZM97.634 180.37L97.816 179.838L97.998 180.37L99.552 184.22H96.094L97.634 180.37ZM106.422 180.79C104.434 180.79 102.992 182.358 102.992 184.486C102.992 186.614 104.434 188.154 106.422 188.154C107.962 188.154 109.194 187.342 109.572 185.802H108.354C108.102 186.558 107.36 187.034 106.464 187.034C105.176 187.034 104.238 185.942 104.238 184.486C104.238 182.988 105.176 181.91 106.436 181.91C107.346 181.91 108.074 182.358 108.354 183.142H109.558C109.222 181.602 107.976 180.79 106.422 180.79ZM113.982 180.79C111.994 180.79 110.552 182.358 110.552 184.486C110.552 186.614 111.994 188.154 113.982 188.154C115.522 188.154 116.754 187.342 117.132 185.802H115.914C115.662 186.558 114.92 187.034 114.024 187.034C112.736 187.034 111.798 185.942 111.798 184.486C111.798 182.988 112.736 181.91 113.996 181.91C114.906 181.91 115.634 182.358 115.914 183.142H117.118C116.782 181.602 115.536 180.79 113.982 180.79ZM121.697 180.79C119.583 180.79 118.113 182.33 118.113 184.472C118.113 186.614 119.583 188.154 121.697 188.154C123.797 188.154 125.267 186.614 125.267 184.472C125.267 182.33 123.797 180.79 121.697 180.79ZM121.711 181.91C123.111 181.91 124.021 183.002 124.021 184.472C124.021 185.928 123.111 187.034 121.711 187.034C120.297 187.034 119.359 185.928 119.359 184.472C119.359 183.002 120.297 181.91 121.711 181.91ZM132.072 188V180.944H130.868V184.864C130.868 186.222 130.168 186.992 129.258 186.992C128.404 186.992 127.914 186.418 127.914 185.312V180.944H126.71V185.508C126.71 187.076 127.452 188.154 128.978 188.154C129.958 188.154 130.602 187.706 130.924 187.034L130.994 188H132.072ZM137.313 180.79C136.319 180.79 135.647 181.294 135.325 181.91L135.255 180.944H134.177V188H135.381V184.22C135.381 182.778 136.095 181.966 137.019 181.966C137.873 181.966 138.391 182.54 138.391 183.632V188H139.609V183.436C139.609 181.882 138.825 180.79 137.313 180.79ZM143.197 180.944L143.211 179.18H141.993L141.979 180.944H140.663V182.064H141.979L141.951 186.068C141.937 187.51 142.623 188.098 143.953 188.098C144.471 188.098 144.793 188.028 145.003 187.944V186.866C144.793 186.936 144.555 186.992 144.163 186.992C143.351 186.992 143.155 186.614 143.155 185.844L143.183 182.064H145.003V180.944H143.197ZM147.112 177.948C146.65 177.948 146.286 178.312 146.286 178.774C146.286 179.222 146.65 179.586 147.112 179.586C147.574 179.586 147.952 179.222 147.952 178.774C147.952 178.312 147.574 177.948 147.112 177.948ZM147.714 188V180.944H146.51V188H147.714ZM152.995 180.79C152.001 180.79 151.329 181.294 151.007 181.91L150.937 180.944H149.859V188H151.063V184.22C151.063 182.778 151.777 181.966 152.701 181.966C153.555 181.966 154.073 182.54 154.073 183.632V188H155.291V183.436C155.291 181.882 154.507 180.79 152.995 180.79ZM163.302 180.944H160.74C160.432 180.846 160.096 180.79 159.732 180.79C158.08 180.79 157.016 181.868 157.016 183.324C157.016 183.87 157.17 184.374 157.464 184.78C157.058 185.088 156.736 185.578 156.736 186.222C156.736 186.936 157.198 187.454 157.674 187.692C157.268 187.916 156.904 188.294 156.904 188.966C156.904 190.352 157.982 191.164 159.984 191.164C161.79 191.164 162.924 190.282 162.924 188.784C162.924 187.608 162.196 186.866 160.698 186.866H158.822C158.29 186.866 157.926 186.614 157.926 186.152C157.926 185.844 158.052 185.606 158.22 185.452C158.626 185.69 159.144 185.83 159.732 185.83C161.37 185.83 162.42 184.724 162.42 183.324C162.42 182.834 162.294 182.386 162.084 182.008H163.302V180.944ZM159.718 184.766C158.794 184.766 158.206 184.136 158.206 183.324C158.206 182.484 158.78 181.854 159.718 181.854C160.656 181.854 161.23 182.484 161.23 183.324C161.23 184.136 160.656 184.766 159.718 184.766ZM159.116 187.93H160.46C161.244 187.93 161.734 188.182 161.734 188.84C161.734 189.68 161.076 190.1 159.984 190.1C158.794 190.1 158.094 189.694 158.094 188.924C158.094 188.238 158.584 187.958 159.116 187.93Z"/><path fill="#B3B8BC" d="M135.808 410.2H133.078V420H136.242C138.244 420 139.476 418.88 139.476 417.2C139.476 416.094 138.86 415.226 137.824 414.862C138.496 414.414 138.874 413.756 138.874 412.86C138.874 411.236 137.698 410.2 135.808 410.2ZM134.352 411.39H135.808C136.9 411.39 137.586 411.936 137.586 412.93C137.586 413.812 136.914 414.414 135.864 414.414H134.352V411.39ZM134.352 415.59H136.242C137.46 415.59 138.174 416.192 138.174 417.172C138.174 418.208 137.432 418.81 136.242 418.81H134.352V415.59ZM143.429 412.79C141.875 412.79 140.839 413.84 140.797 415.198H141.987C141.987 414.33 142.659 413.91 143.429 413.91C144.269 413.91 144.731 414.358 144.731 415.366V415.716L142.575 416.122C141.469 416.332 140.601 416.934 140.601 418.166C140.601 419.398 141.427 420.154 142.659 420.154C143.695 420.154 144.451 419.664 144.801 419.034L144.857 420H145.949V415.324C145.949 413.686 144.997 412.79 143.429 412.79ZM142.799 417.186L144.731 416.766V417.032C144.731 417.522 144.563 418.012 144.325 418.334C144.003 418.782 143.485 419.034 142.897 419.034C142.211 419.034 141.819 418.712 141.819 418.152C141.819 417.522 142.267 417.312 142.799 417.186ZM151.047 412.79C150.053 412.79 149.381 413.294 149.059 413.91L148.989 412.944H147.911V420H149.115V416.22C149.115 414.778 149.829 413.966 150.753 413.966C151.607 413.966 152.125 414.54 152.125 415.632V420H153.343V415.436C153.343 413.882 152.559 412.79 151.047 412.79ZM156.539 416.248V409.78H155.335V420H156.539V417.998L157.533 416.794L159.633 420H161.019L158.373 415.87L160.655 412.944H159.185L156.539 416.248ZM162.87 409.948C162.408 409.948 162.044 410.312 162.044 410.774C162.044 411.222 162.408 411.586 162.87 411.586C163.332 411.586 163.71 411.222 163.71 410.774C163.71 410.312 163.332 409.948 162.87 409.948ZM163.472 420V412.944H162.268V420H163.472ZM168.752 412.79C167.758 412.79 167.086 413.294 166.764 413.91L166.694 412.944H165.616V420H166.82V416.22C166.82 414.778 167.534 413.966 168.458 413.966C169.312 413.966 169.83 414.54 169.83 415.632V420H171.048V415.436C171.048 413.882 170.264 412.79 168.752 412.79ZM179.06 412.944H176.498C176.19 412.846 175.854 412.79 175.49 412.79C173.838 412.79 172.774 413.868 172.774 415.324C172.774 415.87 172.928 416.374 173.222 416.78C172.816 417.088 172.494 417.578 172.494 418.222C172.494 418.936 172.956 419.454 173.432 419.692C173.026 419.916 172.662 420.294 172.662 420.966C172.662 422.352 173.74 423.164 175.742 423.164C177.548 423.164 178.682 422.282 178.682 420.784C178.682 419.608 177.954 418.866 176.456 418.866H174.58C174.048 418.866 173.684 418.614 173.684 418.152C173.684 417.844 173.81 417.606 173.978 417.452C174.384 417.69 174.902 417.83 175.49 417.83C177.128 417.83 178.178 416.724 178.178 415.324C178.178 414.834 178.052 414.386 177.842 414.008H179.06V412.944ZM175.476 416.766C174.552 416.766 173.964 416.136 173.964 415.324C173.964 414.484 174.538 413.854 175.476 413.854C176.414 413.854 176.988 414.484 176.988 415.324C176.988 416.136 176.414 416.766 175.476 416.766ZM174.874 419.93H176.218C177.002 419.93 177.492 420.182 177.492 420.84C177.492 421.68 176.834 422.1 175.742 422.1C174.552 422.1 173.852 421.694 173.852 420.924C173.852 420.238 174.342 419.958 174.874 419.93Z"/><path fill="#B3B8BC" d="M402.862 35V25.2H401.588V32.844L401.168 32.2L396.324 25.2H395.078V35H396.352V27.37L396.73 27.972L401.602 35H402.862ZM411.01 31.374C411.01 28.994 409.652 27.79 407.804 27.79C405.746 27.79 404.402 29.358 404.402 31.486C404.402 33.712 405.816 35.154 407.804 35.154C409.428 35.154 410.52 34.286 410.94 32.886H409.736C409.456 33.628 408.77 34.034 407.832 34.034C406.628 34.034 405.746 33.25 405.662 31.948H411.01V31.374ZM405.662 30.87C405.802 29.736 406.6 28.91 407.804 28.91C408.98 28.91 409.778 29.666 409.792 30.87H405.662ZM414.16 27.944L414.174 26.18H412.956L412.942 27.944H411.626V29.064H412.942L412.914 33.068C412.9 34.51 413.586 35.098 414.916 35.098C415.434 35.098 415.756 35.028 415.966 34.944V33.866C415.756 33.936 415.518 33.992 415.126 33.992C414.314 33.992 414.118 33.614 414.118 32.844L414.146 29.064H415.966V27.944H414.16ZM424.655 35L426.895 27.944H425.607L424.137 32.872L423.997 33.516L423.843 32.872L422.261 27.944H421.225L419.643 32.872L419.489 33.516L419.349 32.872L417.879 27.944H416.591L418.831 35H420.007L421.729 29.96L423.437 35H424.655ZM430.941 27.79C428.827 27.79 427.357 29.33 427.357 31.472C427.357 33.614 428.827 35.154 430.941 35.154C433.041 35.154 434.511 33.614 434.511 31.472C434.511 29.33 433.041 27.79 430.941 27.79ZM430.955 28.91C432.355 28.91 433.265 30.002 433.265 31.472C433.265 32.928 432.355 34.034 430.955 34.034C429.541 34.034 428.603 32.928 428.603 31.472C428.603 30.002 429.541 28.91 430.955 28.91ZM439.439 29.078V27.874C438.221 27.874 437.563 28.532 437.325 29.176L437.241 27.944H436.163V35H437.367V31.262C437.381 30.492 437.633 29.946 438.011 29.596C438.403 29.232 438.879 29.078 439.439 29.078ZM442.014 31.248V24.78H440.81V35H442.014V32.998L443.008 31.794L445.108 35H446.494L443.848 30.87L446.13 27.944H444.66L442.014 31.248ZM448.344 24.948C447.882 24.948 447.518 25.312 447.518 25.774C447.518 26.222 447.882 26.586 448.344 26.586C448.806 26.586 449.184 26.222 449.184 25.774C449.184 25.312 448.806 24.948 448.344 24.948ZM448.946 35V27.944H447.742V35H448.946ZM454.227 27.79C453.233 27.79 452.561 28.294 452.239 28.91L452.169 27.944H451.091V35H452.295V31.22C452.295 29.778 453.009 28.966 453.933 28.966C454.787 28.966 455.305 29.54 455.305 30.632V35H456.523V30.436C456.523 28.882 455.739 27.79 454.227 27.79ZM464.535 27.944H461.973C461.665 27.846 461.329 27.79 460.965 27.79C459.313 27.79 458.249 28.868 458.249 30.324C458.249 30.87 458.403 31.374 458.697 31.78C458.291 32.088 457.969 32.578 457.969 33.222C457.969 33.936 458.431 34.454 458.907 34.692C458.501 34.916 458.137 35.294 458.137 35.966C458.137 37.352 459.215 38.164 461.217 38.164C463.023 38.164 464.157 37.282 464.157 35.784C464.157 34.608 463.429 33.866 461.931 33.866H460.055C459.523 33.866 459.159 33.614 459.159 33.152C459.159 32.844 459.285 32.606 459.453 32.452C459.859 32.69 460.377 32.83 460.965 32.83C462.603 32.83 463.653 31.724 463.653 30.324C463.653 29.834 463.527 29.386 463.317 29.008H464.535V27.944ZM460.951 31.766C460.027 31.766 459.439 31.136 459.439 30.324C459.439 29.484 460.013 28.854 460.951 28.854C461.889 28.854 462.463 29.484 462.463 30.324C462.463 31.136 461.889 31.766 460.951 31.766ZM460.349 34.93H461.693C462.477 34.93 462.967 35.182 462.967 35.84C462.967 36.68 462.309 37.1 461.217 37.1C460.027 37.1 459.327 36.694 459.327 35.924C459.327 35.238 459.817 34.958 460.349 34.93Z"/><defs><clipPath id="clip0"><path fill="white" d="M423 333H457V367H423V333Z"/></clipPath><clipPath id="clip1"><path fill="white" d="M166 89H192V115H166V89Z"/></clipPath><clipPath id="clip2"><path fill="white" d="M62 378H106V422H62V378Z"/></clipPath><clipPath id="clip3"><path fill="white" d="M319 12L363 12V56H319V12Z"/></clipPath></defs></svg>