<svg xmlns="http://www.w3.org/2000/svg" fill="none" viewBox="0 0 13 13"><path fill="#EBF7FF" d="M6.25481 0C5.95473 0 5.72967 0.150039 5.57963 0.45012L4.07923 3.52595L0.628294 4.05109C0.328214 4.12611 0.103153 4.27615 0.0281326 4.57623C-0.0468877 4.87631 0.0281327 5.17639 0.253193 5.32643L2.72886 7.72708L2.1287 11.103C2.05368 11.4031 2.20372 11.7032 2.42878 11.8532C2.65384 12.0032 2.95392 12.0783 3.254 11.9282L6.32983 10.3528L9.40566 11.9282C9.48068 12.0032 9.63072 12.0032 9.78076 12.0032C9.9308 12.0032 10.0808 11.9282 10.2309 11.8532C10.4559 11.7032 10.606 11.4031 10.531 11.103L9.9308 7.72708L12.4065 5.32643C12.6315 5.10137 12.7065 4.80129 12.6315 4.57623C12.5565 4.27615 12.3314 4.12611 12.0314 4.05109L8.58044 3.52595L7.08003 0.45012C6.77995 0.150039 6.55489 0 6.25481 0Z"/></svg>