<svg xmlns="http://www.w3.org/2000/svg" fill="none" viewBox="0 0 40 40"><path fill="#FEBE24" d="M23.7358 26.548C24.8419 27.8772 26.8397 27.9985 28.0985 26.813L36.9461 18.4804C38.1002 17.3934 38.2094 15.5961 37.1953 14.3775L32.2642 8.45202C31.1581 7.12285 29.1602 7.00153 27.9014 8.18708L19.0538 16.5196C17.8997 17.6066 17.7905 19.4039 18.8047 20.6226L23.7358 26.548Z"/><path fill="#202327" d="M13.8 32.2999C13.5 32.2999 13.2 32.3 12.9 32.2C12.6 32.1 12.3 31.9999 12 31.7999C11.5 31.3999 11.1 30.8999 10.9 30.2999C10.7 29.6999 10.7 29.1 10.9 28.4L11.7 25.9L12.5 23.4C12.5 23.3 12.5 23.3 12.5 23.2C12.5 23.1 12.5 23.1 12.4 23.1L10.3 21.5L8.19995 19.9C7.69995 19.5 7.29995 19 7.09995 18.4C6.89995 17.8 6.89995 17.2 7.09995 16.5C7.29995 15.9 7.69995 15.4 8.19995 15C8.69995 14.6 9.29995 14.4 9.99995 14.4H12.6H15.2C15.3 14.4 15.3 14.4 15.3 14.4L15.4 14.3L16.2 11.8L17 9.29995C17.2 8.69995 17.6 8.19995 18.1 7.79995C18.6 7.39995 19.2 7.19995 19.9 7.19995C20.6 7.19995 21.2 7.39995 21.7 7.79995C22.2 8.19995 22.6 8.69995 22.8 9.29995L23.6 11.8L24.4 14.3C24.4 14.4 24.4 14.4 24.5 14.4C24.6 14.4 24.6 14.4 24.6 14.4H27.2H30C30.7 14.4 31.2999 14.6 31.7999 15C32.2999 15.4 32.7 15.9 32.9 16.5C33.1 17.1 33.1 17.8 32.9 18.4C32.7 19 32.2999 19.5 31.7999 19.9L29.7 21.5L27.5 23L27.4 23.1C27.4 23.1 27.4 23.1999 27.4 23.2999L28.2 25.7999L29 28.2999C29.2 28.8999 29.2 29.6 29 30.2C28.8 30.8 28.4 31.3 27.9 31.7C27.4 32.1 26.8 32.2999 26.1 32.2999C25.4 32.2999 24.8999 32.1 24.2999 31.7L22.2 30.1L20.1 28.5H20H19.9L17.8 30.1L15.7 31.7C15.4 31.9 15.1 32 14.8 32.1C14.5 32.2 14.1 32.2999 13.8 32.2999ZM20 26.5C20.2 26.5 20.5 26.5 20.7 26.6C20.9 26.7 21.1 26.8 21.3 26.9L23.4 28.5L25.5 30.1C25.8 30.3 26 30.2999 26.2 30.2999C26.4 30.2999 26.6 30.2 26.6 30.1C26.7 30.1 26.8 29.9 26.9 29.7C27 29.5 27.1 29.3 27 28.9L26.2 26.4L25.4 23.9C25.2 23.4 25.3 22.9 25.4 22.5C25.5 22.1 25.8 21.7 26.2 21.4L28.2999 19.8L30.4 18.2C30.7 18 30.7999 17.8 30.7999 17.6C30.7999 17.4 30.7999 17.2 30.7999 17.1C30.7999 17 30.7 16.8 30.6 16.7C30.5 16.6 30.2 16.4 29.9 16.4H27.2999H24.7C24.2 16.4 23.8 16.2 23.4 16C23 15.8 22.7 15.3 22.6 14.9L21.8 12.4L21 9.89995C20.9 9.59995 20.7 9.39995 20.5 9.29995C20.3 9.19995 20.1 9.19995 20 9.19995C19.9 9.19995 19.7 9.19995 19.5 9.29995C19.3 9.39995 19.1 9.59995 19 9.89995L18.2 12.4L17.4 14.9C17.2 15.4 17 15.8 16.6 16C16.2 16.2 15.8 16.4 15.3 16.4H12.6H9.99995C9.69995 16.4 9.39995 16.5 9.29995 16.7C9.19995 16.9 9.09995 17 9.09995 17.1C9.09995 17.2 8.99995 17.4 8.99995 17.7C8.99995 18 9.09995 18.1 9.39995 18.3L11.5 19.9L13.6 21.5C14 21.8 14.3 22.2 14.4 22.6C14.5 23 14.6 23.5 14.4 24L13.6 26.5L12.8 29C12.7 29.3 12.8 29.5999 12.9 29.7999C13 29.9999 13.1 30.1 13.2 30.2C13.3 30.2 13.4 30.3 13.6 30.4C13.8 30.5 14.1 30.4 14.3 30.2L16.4 28.6L18.5 27C18.7 26.9 18.9 26.7 19.1 26.7C19.3 26.7 19.8 26.5 20 26.5Z"/></svg>