<svg xmlns="http://www.w3.org/2000/svg" fill="none" viewBox="0 0 40 40"><path fill="#FEBE24" d="M3.99795 28.6166C4.80834 39.7843 20.8851 39.8801 20.9682 28.6166C21.0792 17.4105 3.14942 16.9232 3.99795 28.6166Z"/><path fill="#202327" d="M21 19.6V17C21 16.4 20.6 16 20 16C19.4 16 19 16.4 19 17V20C19 20.3 19.1 20.5 19.3 20.7L22.3 23.7C22.5 23.9 22.8 24 23 24C23.2 24 23.5 23.9 23.7 23.7C24.1 23.3 24.1 22.7 23.7 22.3L21 19.6Z"/><path fill="#202327" d="M29 19C28.7 17.3 28.1 15.7 27 14.4V11C27 8.8 25.2 7 23 7H17C14.8 7 13 8.8 13 11V14.4C11.8 15.9 11 17.9 11 20C11 22.1 11.8 24.1 13 25.6V29C13 31.2 14.8 33 17 33H23C25.2 33 27 31.2 27 29V25.6C28.1 24.3 28.7 22.7 28.9 21H29C29.6 21 30 20.6 30 20C30 19.4 29.6 19 29 19ZM17 9H19C19 9.6 19.4 10 20 10C20.6 10 21 9.6 21 9H23C24.1 9 25 9.9 25 11V12.5C23.6 11.5 21.8 11 20 11C18.2 11 16.4 11.6 15 12.5V11C15 9.9 15.9 9 17 9ZM23 31H17C15.9 31 15 30.1 15 29V27.5C16.4 28.5 18.2 29 20 29C21.8 29 23.6 28.4 25 27.5V29C25 30.1 24.1 31 23 31ZM20 27C16.1 27 13 23.9 13 20C13 16.1 16.1 13 20 13C23.9 13 27 16.1 27 20C27 23.9 23.9 27 20 27Z"/></svg>